<svg width="30" height="30" viewBox="0 0 30 30" fill="none" xmlns="http://www.w3.org/2000/svg">
<path d="M14.261 17.7241C14.261 18.1708 14.2024 18.5847 14.0852 18.9655C13.9753 19.3391 13.8179 19.676 13.6128 19.9763C13.4077 20.2766 13.1587 20.5402 12.8657 20.7673C12.5801 20.9943 12.2542 21.1848 11.8879 21.3386C11.5291 21.4924 11.1409 21.6096 10.7234 21.6901C10.3132 21.7634 9.84082 21.8 9.30615 21.8H5.59277C5.42432 21.8 5.26318 21.7451 5.10938 21.6352C4.96289 21.518 4.88965 21.3166 4.88965 21.0309V8.35272C4.88965 8.06708 4.96289 7.86932 5.10938 7.75946C5.26318 7.64227 5.42432 7.58368 5.59277 7.58368H8.82275C9.67236 7.58368 10.3682 7.66425 10.9102 7.82538C11.4521 7.98651 11.9026 8.22089 12.2615 8.5285C12.6277 8.83612 12.9023 9.21332 13.0854 9.6601C13.2686 10.1069 13.3601 10.6122 13.3601 11.1762C13.3601 11.5131 13.3198 11.8354 13.2393 12.143C13.1587 12.4506 13.0378 12.7363 12.8767 12.9999C12.7229 13.2563 12.5251 13.487 12.2834 13.6921C12.0491 13.8972 11.7781 14.0656 11.4705 14.1974C11.8586 14.2707 12.2212 14.4062 12.5581 14.6039C12.895 14.7944 13.188 15.0397 13.437 15.34C13.6934 15.6403 13.8948 15.9919 14.0413 16.3947C14.1877 16.7975 14.261 17.2407 14.261 17.7241ZM11.4155 11.363C11.4155 11.0187 11.3679 10.7075 11.2727 10.4291C11.1775 10.1508 11.0273 9.91644 10.8223 9.72601C10.6172 9.52826 10.3499 9.37811 10.0203 9.27557C9.69067 9.17303 9.25488 9.12177 8.71289 9.12177H6.75732V13.725H8.91064C9.40137 13.725 9.79688 13.6628 10.0972 13.5383C10.3975 13.4064 10.6465 13.2343 10.8442 13.0219C11.042 12.8022 11.1848 12.5495 11.2727 12.2639C11.3679 11.9709 11.4155 11.6706 11.4155 11.363ZM12.2725 17.8339C12.2725 17.4091 12.2029 17.0356 12.0637 16.7133C11.9319 16.3911 11.7341 16.1201 11.4705 15.9003C11.2141 15.6806 10.8882 15.5158 10.4927 15.4059C10.1045 15.2888 9.61377 15.2302 9.02051 15.2302H6.75732V20.2399H9.50391C9.93604 20.2399 10.3132 20.1887 10.6355 20.0861C10.9578 19.9836 11.2397 19.8334 11.4814 19.6357C11.7305 19.4306 11.9246 19.1779 12.0637 18.8776C12.2029 18.5773 12.2725 18.2294 12.2725 17.8339ZM25.3572 16.153C25.3572 16.4387 25.2839 16.6437 25.1375 16.7682C24.9983 16.8854 24.8372 16.944 24.6541 16.944H18.1721C18.1721 17.4933 18.2271 17.9877 18.3369 18.4272C18.4468 18.8666 18.6299 19.2438 18.8862 19.5588C19.1426 19.8737 19.4758 20.1154 19.886 20.2839C20.2961 20.4523 20.7979 20.5366 21.3911 20.5366C21.8599 20.5366 22.2773 20.4999 22.6436 20.4267C23.0098 20.3461 23.3247 20.2582 23.5884 20.163C23.8594 20.0678 24.0791 19.9836 24.2476 19.9103C24.4233 19.8298 24.5552 19.7895 24.6431 19.7895C24.6943 19.7895 24.7383 19.8041 24.7749 19.8334C24.8188 19.8554 24.8518 19.892 24.8738 19.9433C24.8958 19.9946 24.9104 20.0678 24.9177 20.163C24.9324 20.2509 24.9397 20.3608 24.9397 20.4926C24.9397 20.5878 24.936 20.6721 24.9287 20.7453C24.9214 20.8112 24.9104 20.8735 24.8958 20.9321C24.8884 20.9833 24.8701 21.0309 24.8408 21.0749C24.8188 21.1188 24.7859 21.1628 24.7419 21.2067C24.7053 21.2433 24.5881 21.3093 24.3904 21.4045C24.1926 21.4924 23.9363 21.5803 23.6213 21.6682C23.3064 21.756 22.9402 21.8329 22.5227 21.8989C22.1125 21.9721 21.6731 22.0087 21.2043 22.0087C20.3914 22.0087 19.6772 21.8952 19.062 21.6682C18.4541 21.4411 17.9414 21.1042 17.5239 20.6574C17.1064 20.2106 16.7915 19.6503 16.5791 18.9765C16.3667 18.3027 16.2605 17.519 16.2605 16.6254C16.2605 15.7758 16.3704 15.0141 16.5901 14.3403C16.8098 13.6591 17.1248 13.0842 17.5349 12.6154C17.9524 12.1393 18.4541 11.7768 19.04 11.5278C19.626 11.2714 20.2815 11.1432 21.0066 11.1432C21.783 11.1432 22.4421 11.2678 22.9841 11.5168C23.5334 11.7658 23.9839 12.1027 24.3354 12.5275C24.687 12.945 24.9434 13.4394 25.1045 14.0107C25.2729 14.5746 25.3572 15.1789 25.3572 15.8234V16.153ZM23.5334 15.6147C23.5554 14.6625 23.343 13.9155 22.8962 13.3735C22.4568 12.8315 21.8013 12.5605 20.9297 12.5605C20.4829 12.5605 20.0911 12.6447 19.7542 12.8132C19.4172 12.9816 19.1353 13.205 18.9082 13.4833C18.6812 13.7617 18.5054 14.0876 18.3809 14.4611C18.2563 14.8273 18.1868 15.2119 18.1721 15.6147H23.5334ZM23.5664 7.59467C23.625 7.59467 23.6763 7.60931 23.7202 7.63861C23.7642 7.66058 23.7971 7.70087 23.8191 7.75946C23.8484 7.81073 23.8704 7.88397 23.885 7.97919C23.907 8.06708 23.918 8.17694 23.918 8.30878C23.918 8.43329 23.907 8.53949 23.885 8.62738C23.8704 8.70795 23.8484 8.77753 23.8191 8.83612C23.7971 8.89471 23.7642 8.93866 23.7202 8.96796C23.6763 8.99725 23.625 9.0119 23.5664 9.0119H18.304C18.2454 9.0119 18.1904 8.99725 18.1392 8.96796C18.0952 8.93866 18.0586 8.89471 18.0293 8.83612C18 8.77753 17.978 8.70795 17.9634 8.62738C17.9487 8.53949 17.9414 8.43329 17.9414 8.30878C17.9414 8.17694 17.9487 8.06708 17.9634 7.97919C17.978 7.88397 18 7.81073 18.0293 7.75946C18.0586 7.70087 18.0952 7.66058 18.1392 7.63861C18.1904 7.60931 18.2454 7.59467 18.304 7.59467H23.5664Z" fill="white"/>
</svg>
