<svg width="51" height="50" viewBox="0 0 51 50" fill="none" xmlns="http://www.w3.org/2000/svg">
<rect x="1.01562" y="0.390625" width="49.2188" height="49.2188" rx="24.6094" stroke="#FEFEFE" stroke-width="0.78125"/>
<rect x="8.4375" y="7.8125" width="34.375" height="34.375" rx="17.1875" fill="#FEFEFE"/>
<g clip-path="url(#clip0_4033_1678)">
<path d="M23.2812 30.4687C19.375 31.6406 19.375 28.5156 17.8125 28.125M28.75 32.8125V29.7891C28.7793 29.4165 28.729 29.042 28.6024 28.6905C28.4757 28.3389 28.2757 28.0183 28.0156 27.75C30.4688 27.4766 33.0469 26.5469 33.0469 22.2812C33.0467 21.1905 32.6271 20.1416 31.875 19.3516C32.2311 18.3973 32.206 17.3425 31.8047 16.4062C31.8047 16.4062 30.8828 16.1328 28.75 17.5625C26.9594 17.0772 25.0719 17.0772 23.2812 17.5625C21.1484 16.1328 20.2266 16.4062 20.2266 16.4062C19.8253 17.3425 19.8001 18.3973 20.1562 19.3516C19.3985 20.1474 18.9785 21.2058 18.9844 22.3047C18.9844 26.5391 21.5625 27.4687 24.0156 27.7734C23.7586 28.039 23.5604 28.3558 23.4338 28.7031C23.3073 29.0503 23.2553 29.4204 23.2812 29.7891V32.8125" stroke="#050505" stroke-width="1.5625" stroke-linecap="round" stroke-linejoin="round"/>
</g>
<defs>
<clipPath id="clip0_4033_1678">
<rect width="18.75" height="18.75" fill="white" transform="translate(16.25 15.625)"/>
</clipPath>
</defs>
</svg>
