<svg width="50" height="50" viewBox="0 0 50 50" fill="none" xmlns="http://www.w3.org/2000/svg">
<rect x="0.390625" y="0.390625" width="49.2188" height="49.2188" rx="24.6094" stroke="#FEFEFE" stroke-width="0.78125"/>
<rect x="7.8125" y="7.8125" width="34.375" height="34.375" rx="17.1875" fill="#FEFEFE"/>
<path d="M28.125 21.875C29.3682 21.875 30.5605 22.3689 31.4396 23.2479C32.3186 24.127 32.8125 25.3193 32.8125 26.5625V32.0312H29.6875V26.5625C29.6875 26.1481 29.5229 25.7507 29.2299 25.4576C28.9368 25.1646 28.5394 25 28.125 25C27.7106 25 27.3132 25.1646 27.0201 25.4576C26.7271 25.7507 26.5625 26.1481 26.5625 26.5625V32.0312H23.4375V26.5625C23.4375 25.3193 23.9314 24.127 24.8104 23.2479C25.6895 22.3689 26.8818 21.875 28.125 21.875Z" stroke="black" stroke-width="1.5625" stroke-linecap="round" stroke-linejoin="round"/>
<path d="M20.3125 22.6562H17.1875V32.0312H20.3125V22.6562Z" stroke="black" stroke-width="1.5625" stroke-linecap="round" stroke-linejoin="round"/>
<path d="M18.75 20.3125C19.6129 20.3125 20.3125 19.6129 20.3125 18.75C20.3125 17.8871 19.6129 17.1875 18.75 17.1875C17.8871 17.1875 17.1875 17.8871 17.1875 18.75C17.1875 19.6129 17.8871 20.3125 18.75 20.3125Z" stroke="black" stroke-width="1.5625" stroke-linecap="round" stroke-linejoin="round"/>
</svg>
