<svg width="51" height="50" viewBox="0 0 51 50" fill="none" xmlns="http://www.w3.org/2000/svg">
<rect x="1.20312" y="0.640625" width="49.2188" height="48.7188" rx="24.3594" stroke="#FEFEFE" stroke-width="0.78125"/>
<rect x="8.625" y="8.0625" width="34.375" height="33.875" rx="16.9375" fill="#FEFEFE"/>
<path d="M25.1967 27.6034C25.1967 27.9757 25.1478 28.3206 25.0502 28.6379C24.9586 28.9492 24.8274 29.23 24.6565 29.4802C24.4856 29.7305 24.2781 29.9502 24.0339 30.1394C23.7959 30.3286 23.5243 30.4873 23.2191 30.6155C22.92 30.7437 22.5966 30.8413 22.2487 30.9084C21.9069 30.9695 21.5132 31 21.0676 31H17.9731C17.8328 31 17.6985 30.9542 17.5703 30.8627C17.4482 30.765 17.3872 30.5972 17.3872 30.3591V19.7939C17.3872 19.5559 17.4482 19.3911 17.5703 19.2996C17.6985 19.2019 17.8328 19.1531 17.9731 19.1531H20.6648C21.3728 19.1531 21.9526 19.2202 22.4043 19.3545C22.856 19.4888 23.2313 19.6841 23.5304 19.9404C23.8356 20.1968 24.0645 20.5111 24.217 20.8834C24.3696 21.2557 24.4459 21.6769 24.4459 22.1469C24.4459 22.4276 24.4124 22.6962 24.3452 22.9525C24.2781 23.2089 24.1774 23.4469 24.0431 23.6666C23.9149 23.8802 23.7501 24.0725 23.5487 24.2434C23.3534 24.4143 23.1276 24.5547 22.8712 24.6646C23.1947 24.7256 23.4968 24.8385 23.7776 25.0033C24.0583 25.162 24.3025 25.3665 24.51 25.6167C24.7236 25.8669 24.8915 26.1599 25.0135 26.4956C25.1356 26.8313 25.1967 27.2006 25.1967 27.6034ZM22.8254 22.3025C22.8254 22.0156 22.7858 21.7562 22.7064 21.5243C22.6271 21.2924 22.502 21.097 22.3311 20.9384C22.1602 20.7736 21.9374 20.6484 21.6627 20.563C21.3881 20.4775 21.0249 20.4348 20.5732 20.4348H18.9436V24.2709H20.738C21.147 24.2709 21.4766 24.219 21.7268 24.1152C21.9771 24.0054 22.1846 23.8619 22.3494 23.6849C22.5142 23.5018 22.6332 23.2913 22.7064 23.0532C22.7858 22.8091 22.8254 22.5588 22.8254 22.3025ZM23.5396 27.6949C23.5396 27.3409 23.4816 27.0297 23.3656 26.7611C23.2557 26.4926 23.0909 26.2667 22.8712 26.0836C22.6576 25.9005 22.386 25.7632 22.0564 25.6716C21.7329 25.574 21.324 25.5251 20.8296 25.5251H18.9436V29.7H21.2324C21.5925 29.7 21.9069 29.6572 22.1754 29.5718C22.444 29.4863 22.679 29.3612 22.8804 29.1964C23.0879 29.0255 23.2496 28.8149 23.3656 28.5647C23.4816 28.3145 23.5396 28.0245 23.5396 27.6949ZM34.4435 26.2942C34.4435 26.5322 34.3824 26.7031 34.2604 26.8069C34.1444 26.9045 34.0101 26.9534 33.8575 26.9534H28.4559C28.4559 27.4111 28.5017 27.8231 28.5933 28.1893C28.6848 28.5555 28.8374 28.8699 29.051 29.1323C29.2646 29.3948 29.5424 29.5962 29.8842 29.7366C30.226 29.877 30.644 29.9471 31.1384 29.9471C31.5291 29.9471 31.877 29.9166 32.1821 29.8556C32.4873 29.7885 32.7498 29.7152 32.9695 29.6359C33.1953 29.5565 33.3784 29.4863 33.5188 29.4253C33.6653 29.3582 33.7751 29.3246 33.8484 29.3246C33.8911 29.3246 33.9277 29.3368 33.9583 29.3612C33.9949 29.3795 34.0223 29.41 34.0406 29.4528C34.059 29.4955 34.0712 29.5565 34.0773 29.6359C34.0895 29.7091 34.0956 29.8007 34.0956 29.9105C34.0956 29.9899 34.0925 30.0601 34.0864 30.1211C34.0803 30.176 34.0712 30.2279 34.059 30.2767C34.0529 30.3195 34.0376 30.3591 34.0132 30.3958C33.9949 30.4324 33.9674 30.469 33.9308 30.5056C33.9003 30.5361 33.8026 30.5911 33.6378 30.6704C33.473 30.7437 33.2594 30.8169 32.9969 30.8901C32.7345 30.9634 32.4293 31.0275 32.0814 31.0824C31.7396 31.1434 31.3734 31.174 30.9828 31.174C30.3053 31.174 29.7102 31.0793 29.1975 30.8901C28.6909 30.7009 28.2637 30.4202 27.9158 30.0479C27.5679 29.6755 27.3054 29.2086 27.1284 28.6471C26.9514 28.0856 26.8629 27.4325 26.8629 26.6879C26.8629 25.9799 26.9545 25.3451 27.1376 24.7836C27.3207 24.2159 27.5831 23.7368 27.9249 23.3462C28.2728 22.9495 28.6909 22.6473 29.1792 22.4398C29.6675 22.2262 30.2137 22.1194 30.818 22.1194C31.465 22.1194 32.0143 22.2231 32.4659 22.4307C32.9237 22.6382 33.2991 22.9189 33.592 23.2729C33.885 23.6208 34.0986 24.0328 34.2329 24.5089C34.3733 24.9789 34.4435 25.4824 34.4435 26.0195V26.2942ZM32.9237 25.8456C32.942 25.0521 32.765 24.4296 32.3927 23.9779C32.0265 23.5262 31.4802 23.3004 30.7539 23.3004C30.3816 23.3004 30.0551 23.3706 29.7743 23.511C29.4935 23.6514 29.2585 23.8375 29.0693 24.0695C28.8801 24.3014 28.7336 24.573 28.6299 24.8843C28.5261 25.1895 28.4681 25.5099 28.4559 25.8456H32.9237ZM32.9512 19.1622C33 19.1622 33.0427 19.1744 33.0793 19.1989C33.116 19.2172 33.1434 19.2507 33.1617 19.2996C33.1862 19.3423 33.2045 19.4033 33.2167 19.4827C33.235 19.5559 33.2441 19.6475 33.2441 19.7573C33.2441 19.8611 33.235 19.9496 33.2167 20.0228C33.2045 20.09 33.1862 20.1479 33.1617 20.1968C33.1434 20.2456 33.116 20.2822 33.0793 20.3066C33.0427 20.3311 33 20.3433 32.9512 20.3433H28.5658C28.517 20.3433 28.4712 20.3311 28.4285 20.3066C28.3918 20.2822 28.3613 20.2456 28.3369 20.1968C28.3125 20.1479 28.2942 20.09 28.282 20.0228C28.2698 19.9496 28.2637 19.8611 28.2637 19.7573C28.2637 19.6475 28.2698 19.5559 28.282 19.4827C28.2942 19.4033 28.3125 19.3423 28.3369 19.2996C28.3613 19.2507 28.3918 19.2172 28.4285 19.1989C28.4712 19.1744 28.517 19.1622 28.5658 19.1622H32.9512Z" fill="#050505"/>
</svg>
