<svg width="520" height="520" viewBox="0 0 520 520" fill="none" xmlns="http://www.w3.org/2000/svg">
<path d="M232.684 146.705C238.371 136.63 209.235 133.136 228.865 143.146C230.685 143.748 230.279 147.404 232.684 146.705ZM73.8072 61.1163C61.4247 44.9475 97.0772 63.83 84.516 46.8975C73.921 38.4638 63.7485 56.4038 73.8072 61.1163ZM99.7422 81.4288C117.325 79.0888 95.2735 73.8563 96.216 81.2175L99.7422 81.4288ZM85.8485 78.0975C79.2347 80.6975 89.6185 72.9788 85.8485 78.0975V78.0975ZM113.88 108.956C124.8 109.216 109.183 94.2988 122.183 101.043C120.055 94.0713 107.038 92.7713 100.652 89.9925C97.0772 96.3625 107.965 109.038 113.847 108.956H113.88ZM79.8847 107.559C89.2285 100.506 112.125 111.735 97.4347 100.555C96.021 99.3038 65.2272 109.038 79.8847 107.559ZM70.2972 125.889C86.661 120.331 109.021 114.091 116.74 128.635C108.875 119.178 113.571 109.866 120.997 123.695C131.478 137.686 136.727 117.341 129.886 112.629C137.67 122.298 146.51 126.848 135.102 113.23C147.485 98.3288 110.272 115.196 101.806 115.018C97.7435 116.838 59.7347 124.703 70.2972 125.889ZM100.75 176.816C95.2735 175.5 104.747 171.876 100.75 176.816V176.816ZM91.211 202.345C88.3672 205.465 90.236 196.463 91.211 202.345V202.345ZM83.1347 198.25C92.2672 197.649 97.4672 188.159 81.3635 188.711C56.3872 186.128 103.382 197.243 78.1622 194.074C74.766 196.3 82.956 198.884 83.1347 198.283V198.25ZM473.135 445.981C484.445 445.981 507.406 442.471 482.787 442.471C478.936 443.089 460.281 442.959 473.135 445.981ZM418.925 414.148C413.449 414.895 420.144 405.86 418.925 414.148V414.148ZM461.419 443.186C455.244 446.436 461.662 435.971 461.419 443.186V443.186ZM43.0622 181.431C33.491 179.075 51.171 175.24 43.0622 181.431V181.431ZM73.921 203.369C63.1472 201.224 78.8935 198.088 73.921 203.369V203.369ZM63.4722 200.444C48.4247 192.936 77.626 191.766 63.4722 200.444V200.444ZM168.155 134.55C172.883 122.119 186.55 129.578 170.348 132.048C170.69 133.364 169.861 138.466 168.155 134.55ZM155.155 134.631C154.033 109.98 177.872 143.406 155.155 134.631V134.631ZM109.46 141.668C116.967 132.649 152.002 135.915 126.36 140.79C119.502 135.606 114.221 143.829 109.46 141.668ZM106.291 143.78C107.591 148.444 110.792 138.499 106.291 143.78V143.78ZM93.9572 148.753C94.6072 140.4 114.627 153.173 97.2722 151.759L93.9572 148.753ZM84.9222 148.59C88.6922 151.548 92.0235 143.309 84.9222 148.59V148.59ZM83.9635 157.414C88.9035 139.263 110.37 172.331 92.0397 159.803C90.0735 158.259 87.571 157.333 84.841 157.333C84.5322 157.333 84.2235 157.349 83.9147 157.365H83.9472L83.9635 157.414ZM33.3122 183.203C31.4272 172.331 31.6872 153.27 49.806 159.721C25.626 164.515 66.5435 189.768 61.376 169.829C71.5322 170.316 81.2822 163.816 75.9197 173.68C95.956 171.454 109.833 154.099 129.203 156.52C146.786 155.058 163.036 151.661 178.49 146.526L177.011 146.949C190.368 145.974 203.206 131.593 195.894 123.094C192.351 122.883 188.207 122.753 184.031 122.753C167.895 122.753 152.181 124.605 137.101 128.099L138.498 127.823C116.203 132.454 95.9397 141.261 73.4172 145.064C51.4797 148.005 77.821 153.189 71.5485 154.326C60.0922 158.308 85.1985 160.989 70.0697 165.165C60.726 163.378 50.976 160.176 54.9897 150.345C33.9785 153.043 15.486 161.785 32.1097 183.154H33.3285L33.3122 183.203ZM68.5747 206.798C60.2547 208.325 69.696 199.079 68.5747 206.798V206.798ZM437.791 445.445C431.015 446.453 440.472 437.483 437.791 445.445V445.445ZM397.702 424.661C389.171 422.76 404.397 418.503 397.702 424.661V424.661ZM66.0072 219.798C76.521 215.67 46.9135 211.266 63.8947 218.985L66.0072 219.798ZM41.2422 204.994C37.391 205.806 40.5272 198.494 41.2422 204.994V204.994ZM36.7735 208.374C33.8485 210.438 36.3672 202.898 36.7735 208.374V208.374ZM66.9497 227.955C49.8872 226.168 65.536 216.076 66.9497 227.955V227.955ZM125.433 271.164C119.551 269.474 127.903 268.889 125.433 271.164V271.164ZM72.5235 237.25C70.086 235.284 70.6222 239.72 72.5235 237.25V237.25ZM64.1222 233.139C50.651 228.589 64.301 228.069 64.1222 233.139V233.139ZM49.416 229.434C38.756 227.045 46.621 213.704 49.416 229.434V229.434ZM111.085 272.253C104.65 271.944 111.263 263.981 111.085 272.253V272.253ZM389.756 445.835C400.156 443.723 423.832 451.116 427.651 443.073C415.057 442.764 383.987 434.184 382.525 445.104L385.287 445.575L389.756 445.835ZM103.642 270.384C101.172 271.391 103.496 267.686 103.642 270.384V270.384ZM80.161 259.009C72.7022 257.189 88.2697 256.263 80.161 259.009V259.009ZM267.588 385.531C259.561 387.563 267.442 377.39 267.588 385.531V385.531ZM85.166 270.563C71.6785 267.118 97.7597 265.688 85.166 270.563V270.563ZM329.046 427.326C323.57 426.92 333.434 424.076 329.046 427.326V427.326ZM283.319 398.499C280.133 399.1 282.506 395.346 283.319 398.499V398.499ZM277.761 394.453C269.067 394.323 275.567 388.814 277.761 394.453V394.453ZM162.402 321.685C147.68 318.354 162.402 313.463 162.402 321.685V321.685ZM149.077 318.598C143.682 314.064 148.817 317.948 149.077 318.598V318.598ZM61.2785 264.469C63.1472 256.685 43.956 221.683 52.2272 246.919C55.1847 252.2 54.8597 262.226 61.2785 264.469ZM109.118 302.234C119.616 304.59 151.076 328.104 132.518 303.859C123.012 301.064 128.716 277.81 119.015 281.921C125.515 292.793 124.377 297.408 110.695 290.566C93.5347 282.181 101.075 294.71 104.406 298.155C99.856 299.211 110.483 302.136 109.135 302.217L109.118 302.234ZM371.979 471.445C362.456 469.755 379.811 466.212 371.979 471.445V471.445ZM343.947 452.806C331.614 457.129 355.599 443.024 343.947 452.806V452.806ZM349.424 455.455C363.74 445.104 340.73 453.473 346.417 457.405L349.424 455.455ZM189.133 360.328C184.583 361.286 186.192 354.299 189.133 360.328V360.328ZM179.79 354.916C173.875 355.323 179.383 350.041 179.79 354.916V354.916ZM331.484 450.564C342.68 443.349 328.932 444.47 329.452 451.214L331.484 450.564ZM101.92 305.793C93.3885 305.159 105.235 300.885 101.92 305.793V305.793ZM335.156 455.293C327.844 453.212 346.726 445.38 335.156 455.293V455.293ZM317.573 448.386C308.116 441.886 340.616 433.485 317.573 448.386V448.386ZM73.2872 295.393C62.611 280.166 66.641 273.293 56.3385 260.878C54.3885 251.339 38.6747 229.743 48.2135 252.639C56.9397 266.013 59.5397 286.731 73.2872 295.409V295.393ZM321.49 452.611C309.351 453.408 334.019 439.335 321.49 452.611V452.611ZM321.474 456.869C316.599 458.201 321.539 453.83 321.474 456.869V456.869ZM297.911 440.716C286.942 444.941 309.237 431.21 297.911 440.716V440.716ZM194.415 376.756C201.76 383.256 228.166 381.55 203.352 377.569C199.663 372.093 179.985 373.425 194.415 376.756ZM119.063 331.338C101.513 323.944 114.156 323.18 119.063 331.338V331.338ZM105.836 322.644C91.6172 314.73 103.805 314.665 105.836 322.644V322.644ZM302.64 446.258C309.237 439.855 302.9 456.479 313.609 444.698C313.706 436.264 313.267 431.291 301.307 441.529C298.025 443.349 296.562 451.133 302.64 446.258ZM290.241 441.041C286.325 445.916 290.647 435.354 290.241 441.041V441.041ZM169.617 367.965C155.577 356.671 198.25 377.179 169.617 367.965V367.965ZM146.055 354.429C152.961 359.564 172.055 369.021 155.886 356.379C161.346 350.041 145.453 346.678 150.735 342.453C137.328 334.246 140.172 334.978 149.565 335.221C133.445 328.039 151.872 328.559 150.979 324.87C144.787 323.651 120.12 313.901 134.647 325.683C119.908 318.175 131.137 328.478 126.685 327.389C111.605 323.294 140.091 338.861 124.296 335.01C132.925 341.851 147.566 352.56 127.952 342.258C125.352 345.979 141.96 351.601 146.071 354.445L146.055 354.429ZM190.547 383.955C203.043 387.205 202.979 382.021 191.669 380.51C185.575 374.823 166.367 368.826 183.544 379.795C184.697 382.671 188.321 382.623 190.531 383.971L190.547 383.955ZM168.008 372.58C165.408 370.321 168.333 373.994 168.008 372.58V372.58ZM178.961 157.073C179.367 159.9 180.862 154.733 178.961 157.073V157.073ZM172.412 196.121C168.025 188.403 177.937 162.143 179.026 178.458C174.411 191.149 177.71 198.25 180.911 181.22C186.859 167.814 179.627 207.675 172.38 196.138L172.412 196.121ZM166.042 206.473C164.97 199.973 169.699 214.679 166.042 206.473V206.473ZM169.958 216.824C163.572 201.061 175.89 225.144 169.958 216.824V216.824ZM172.623 222.723C172.575 219.326 173.501 227.63 172.623 222.723V222.723ZM126.668 197.145C130.845 188.338 134.387 206.96 126.668 197.145V197.145ZM110.386 187.444C111.767 190.938 113.002 186.323 110.386 187.444V187.444ZM179.985 241.784C182.081 253.013 182.357 222.609 179.985 241.784V241.784ZM117.552 205.156C120.981 200.119 108.42 182.406 119.356 198.803C124.068 202.556 133.006 205.091 125.108 206.668C137.491 217.62 122.07 209.625 117.552 205.173V205.156ZM183.56 247.049C184.453 230.198 188.597 236.99 183.592 249.438L183.56 247.049ZM111.28 211.006C119.713 209.219 146.168 225.81 121.842 215.751C119.161 212.745 113.392 214.143 111.28 211.006ZM188.272 264.241C188.467 270.433 190.905 254.865 188.272 264.241V264.241ZM154.115 242.336C152.782 225.891 157.105 245.05 154.115 242.336V242.336ZM109.118 218.465C94.9647 198.916 150.28 238.225 118.202 223.421C114.855 222.544 110.808 222.203 109.118 218.465ZM187.216 271.408C187.362 276.64 188.305 266.939 187.216 271.408V271.408ZM191.278 275.438C192.253 265.021 193.293 282.539 191.278 275.438V275.438ZM167.927 261.625C158.388 255.905 165.425 221.341 168.675 244.969C177.953 241.963 168.171 257.156 175.077 257.026C174.005 266.63 170.901 270.091 167.976 261.609L167.927 261.625ZM104.78 224.916C82.7285 205.303 132.502 235.186 108.371 228.573L104.78 224.916ZM118.933 238.453C112.271 225.924 127.058 243.685 118.933 238.453V238.453ZM111.816 236.161C114.156 240.468 116.22 231.79 111.816 236.161V236.161ZM100.246 236.47C92.6572 228.963 87.1647 221.991 100.587 231.806C105.771 232.001 89.0985 216.011 101.806 226.736C115.212 229.174 108.452 248.706 100.246 236.486V236.47ZM122.265 253.516C126.652 244.27 129.691 266.386 122.265 253.516V253.516ZM113.116 250.38C113.928 238.128 117.78 258.765 113.116 250.38V250.38ZM133.493 264.404C129.236 257.124 126.717 248.365 126.717 239.021C126.717 239.005 126.717 238.989 126.717 238.973C128.261 246.643 143.049 272.009 133.965 249.486C123.938 230.604 145.941 255.613 148.216 260.325C149.223 264.989 142.025 259.041 146.916 270.026C137.978 257.498 141.635 276.949 133.493 264.404ZM199.403 308.376C192.253 292.338 204.473 299.601 200.98 311.009L199.403 308.376ZM161.183 296.108C158.031 290.469 167.748 301.389 161.183 296.108V296.108ZM205.692 327.08C208.422 316.843 208.91 335.693 205.692 327.08V327.08ZM142.675 292.923C144.868 300.511 147.127 291.704 142.675 292.923V292.923ZM221.861 347.588C214.305 332.963 231.4 351.731 221.861 347.588V347.588ZM228.41 356.379C228.215 346.873 230.587 363.691 228.41 356.379V356.379ZM303.664 413.563C303.794 416.406 307.417 413.335 303.664 413.563V413.563ZM237.9 371.784C231.887 365.495 230.327 353.714 236.827 363.968C240.159 365.3 247.487 383.191 237.9 371.784ZM258.099 428.805C273.796 419.429 268.612 450.775 284.716 431.438C300.592 419.867 271.017 445.786 290.599 433.534C304.736 424.044 325.65 438.003 338.845 442.569C348.351 442.098 357.581 450.791 367.331 445.51C386.067 440.44 330.655 438.003 345.199 429.065C342.956 429.569 340.372 429.861 337.724 429.861C324.642 429.861 313.202 422.793 307.011 412.279L306.913 412.116C285.805 408.623 267.881 397.166 255.954 381.014L255.807 380.803C251.907 374.4 261.495 381.696 252.443 371.264C242.596 361.351 234.195 349.96 227.63 337.48L227.256 336.716C217.977 331.76 216.905 317.168 215.946 336.229C216.027 324.188 204.717 316.079 201.971 319.459C201.938 307.856 214.061 313.674 205.546 305.094C203.726 293.069 197.714 280.524 195.894 266.971C193.098 260.439 195.487 246.448 186.29 261.251C182.942 276.884 185.168 242.028 190.385 253.533C197.226 241.751 187.947 243.181 187.541 244.806C192.01 234.894 190.385 220.838 186.387 226.2C188.76 215.703 190.141 187.574 182.829 192.579C187.249 181.61 191.23 142.366 171.99 157.333C161.915 157.739 152.457 159.916 143.78 163.54L144.316 163.345C164.336 174.379 142.285 167.326 134.16 165.571C133.103 175.76 125.027 171.356 114.952 171.454C131.056 173.436 107.12 187.899 97.8735 182.293C85.8972 188.013 108.225 202.329 98.1172 206.765C99.336 213.428 79.7385 204.328 81.266 219.765C69.631 214.874 79.6897 238.046 85.5072 230.198C105.3 235.56 99.4335 247.78 99.921 259.383C96.7197 266.143 83.996 243.49 97.0772 244.53C86.7747 227.744 85.686 238.436 77.0897 246.253C75.0585 246.821 98.9947 257.368 83.996 262.551C97.191 264.583 97.5647 276.153 100.246 283.465C108.16 291.736 106.535 274.333 116.057 284.278C110.045 275.421 84.2397 259.334 105.007 264.501C104.91 255.564 101.253 248.398 107.623 248.576C113.912 237.169 101.026 276.738 115.245 262.226C119.161 260.504 120.12 250.786 127.221 263.136C137.475 273.244 130.91 280.556 116.431 271.326C119.015 280.118 135.801 283.254 132.648 297.018C135.996 309.108 140.676 304.655 144.755 303.956C147.956 315.689 149.776 307.06 149.938 301.454C164.563 304.606 161.151 313.235 165.734 319.329C175.825 323.879 151.271 288.421 168.61 308.653C186.842 325.098 175.451 332.004 159.071 329.371C169.422 328.543 172.786 343.379 185.737 342.859C197.551 348.481 205.53 370.078 185.185 361.075C178.116 354.721 153.107 346.856 173.55 358.963C194.382 367.494 211.493 375.846 227.987 385.141L225.55 383.89C238.55 393.185 244.189 403.829 249.112 405.941C238.192 411.158 216.157 401.765 232.521 398.872C222.3 397.02 210.827 391.869 220.593 404.56C228.913 411.531 250.039 410.768 253.841 411.564C250.607 418.633 245.115 419.201 253.971 419.754C244.107 425.035 257.14 425.848 258.05 428.854L258.099 428.805ZM199.696 392.909C216.482 395.054 179.692 381.469 196.023 391.69L199.696 392.909ZM244.481 423.312C230.262 420.469 259.057 417.527 244.481 423.312V423.312ZM158.372 369.753C143.341 363.431 167.716 368.745 158.372 369.753V369.753ZM209.251 402.09C198.526 400.53 210.47 396.906 209.251 402.09V402.09ZM283.66 450.271C279.939 451.799 283.465 446.274 283.66 450.271V450.271ZM215.312 408.346C213.005 405.714 214.207 408.915 215.312 408.346V408.346ZM105.511 338.585C91.8285 327.746 103.951 332.556 105.511 338.585V338.585ZM147.339 365.641C130.113 360.1 159.932 364.894 147.339 365.641V365.641ZM182.633 391.105C175.809 390.943 181.333 387.221 182.633 391.105V391.105ZM276.656 449.101C269.49 454.577 277.225 441.724 276.656 449.101V449.101ZM145.275 368.176C139.88 368.55 144.43 364.114 145.275 368.176V368.176ZM239.574 428.285C219.781 425.295 261.511 428.48 239.574 428.285V428.285ZM199.501 405.129C222.657 411.694 180.05 390.504 193.797 402.74L196.836 404.121L199.468 405.129H199.501ZM219.488 421.038C202.946 417.186 223.405 414.342 219.488 421.038V421.038ZM153.692 380.868C163.15 388.131 191.864 381.794 168.187 376.545C157.43 370.793 133.12 366.876 149.662 379.99L153.692 380.868ZM206.163 416.861C192.026 413.546 214.89 413.579 206.163 416.861V416.861ZM186.55 404.82C173.94 401.57 192.643 400.563 186.55 404.82V404.82ZM163.199 391.219C150.686 387.465 162.386 387.823 163.199 391.219V391.219ZM242.824 453.245C250.883 458.315 289.932 464.409 265.46 455.341C261.397 456.186 220.171 443.69 242.791 453.245H242.824ZM192.66 421.931C189.085 423.459 192.383 418.568 192.66 421.931V421.931ZM182.633 416.926C169.845 416.845 192.53 410.524 182.633 416.926V416.926ZM226.638 447.655C214.256 445.478 230.522 441.935 226.638 447.655V447.655ZM203.742 434.866C193.911 431.048 210.08 428.773 203.742 434.866V434.866ZM190.352 429.276C185.477 432.283 189.263 423.898 190.352 429.276V429.276ZM179.66 425.376C173.371 422.939 184.031 423.426 179.66 425.376V425.376ZM99.3685 354.364C100.035 351.406 102.96 360.799 99.3685 354.364V354.364ZM156.097 416.65C175.792 423.946 156.016 402.805 146.965 404.024C142.983 397.101 131.722 392.714 139.652 388.993C125.352 393.949 124.686 370.11 117.926 373.506C102.813 368.729 112.043 351.78 94.0385 341.429C92.3972 330.46 76.131 320.954 70.931 304.428C68.6397 295.978 52.5522 271.667 62.4485 294.271C72.9785 316.794 84.841 336.18 98.5397 354.071L97.9872 353.308C106.843 372.466 119.86 388.375 135.947 400.4L136.272 400.628C142.155 406.283 147.81 414.911 156.113 416.666L156.097 416.65ZM194.756 443.983C212.793 453.261 233.723 460.493 255.742 464.588L257.172 464.815C278.346 469.674 302.656 472.452 327.632 472.452C340.6 472.452 353.405 471.705 365.982 470.242L364.455 470.389C348.416 463.141 331.809 473.233 315.819 465.205C310.131 465.855 303.534 466.213 296.855 466.213C282.571 466.213 268.677 464.539 255.368 461.37L256.587 461.614C230.083 451.961 208.048 442.016 186.842 430.706L189.751 432.12C163.816 422.663 203.157 444.259 210.161 446.03C226.362 455.228 192.351 441.301 187.541 437.483C173.972 429.861 172.233 431.454 186.208 439.189C189.036 440.814 191.815 442.552 194.74 443.966L194.756 443.983ZM161.963 429.764C142.008 416.033 124.913 400.059 110.435 381.908L110.061 381.436C82.826 348.01 60.6447 309.108 45.5322 266.858L44.671 264.128C35.6197 236.616 32.4835 207.106 20.8322 180.668C18.476 176.345 17.0947 171.194 17.0947 165.718C17.0947 149.923 28.6485 136.809 43.761 134.388L43.9397 134.371C53.2835 132.6 69.7772 123.776 49.8872 130.081C32.061 143.163 30.3385 118.203 48.6035 116.643C56.5497 116.561 62.9685 110.11 62.9685 102.148C62.9685 99.7588 62.3835 97.5 61.3597 95.5013L61.3922 95.5825C47.986 86.8563 93.876 77.2525 70.801 64.2363C46.7835 38.2688 104.455 33.2963 90.236 62.7413C86.8397 85.3775 130.52 58.5813 120.396 84.7275C130.698 97.305 158.973 87.5713 158.275 105.219C173.306 106.226 178.441 118.869 192.53 119.844C207.155 126.441 233.594 131.625 238.55 148.07C224.071 159.559 190.547 124.41 188.938 156.146C189.312 206.115 196.738 254.199 210.258 299.666L209.332 296.01C220.22 323.05 235.657 346.141 254.897 365.414C272.431 384.946 293.507 400.871 317.2 412.279L318.402 412.799C337.252 421.704 359.157 428.724 382.07 432.754L383.646 432.981C392.746 426.01 408.834 400.14 423.004 411.044C423.67 423.312 394.81 436.686 421.639 435.338C437.401 430.593 448.321 447.525 461.305 432.25C473.249 446.404 510.981 423.199 502.466 452.156C490.977 459.55 474.207 455.081 462.686 465.27C443.706 455.78 428.577 473.753 407.55 471.478C386.896 475.231 363.122 477.376 338.845 477.376C338.13 477.376 337.398 477.376 336.684 477.376H336.797C295.392 476.645 255.775 470.161 218.335 458.705L221.374 459.501C198.721 451.848 179.075 441.773 161.249 429.276L161.996 429.78L161.963 429.764Z" fill="white"/>
</svg>
