<svg width="3769" height="2200" viewBox="0 0 3769 2200" fill="none" xmlns="http://www.w3.org/2000/svg">
<g id="Frame 264">
<g id="Frame 257">
<rect x="1204" y="434" width="1361" height="1361" rx="680.5" stroke="white" stroke-width="30"/>
</g>
<g id="Frame 256">
<rect x="1255" y="485" width="1259" height="1259" rx="629.5" fill="white"/>
<g id="Frame 73">
<g id="Frame 49">
<path id="Vector 13" d="M1689.58 1517.69V769.84H1851.05C2056.72 769.84 2125.99 816.655 2125.99 1013.44C2125.99 1210.22 1937.94 1264.97 1851.05 1270.13M1851.05 1270.13C2059.58 1270.13 2125.99 1435.17 2125.99 1517.69M1851.05 1270.13V1013.44M1851.05 1270.13V1517.69" stroke="#080210" stroke-width="119.021"/>
</g>
</g>
</g>
<g id="296742 1" opacity="0.8" clip-path="url(#clip0_5040_4963)">
<g id="Group">
<path id="Vector" d="M680.133 353.4C663.866 361.667 630.4 401.267 612.933 433C605.333 446.867 598.933 463.934 596.933 475.134C594.933 486.867 593.2 490.734 584 504.334C572.666 521.134 567.6 533.4 566 548.334C564.8 558.867 563.333 561.934 552.266 577.4C547.066 584.467 542.133 592.6 541.2 595.4C540.4 598.067 537.6 603.4 535.2 607.134C526.133 620.734 517.2 643.667 509.6 672.334L504.666 691L504.8 721C504.8 745.4 505.333 751.8 506.933 755C512.533 765.8 510.8 783.534 502.8 798.467C496.666 809.934 491.733 821.134 477.2 856.867L466.666 882.734V939.134V995.534L460 1004.33C451.466 1015.67 447.466 1023.53 443.733 1036.6C441.066 1045.67 440.666 1049.93 440.8 1069C440.8 1093.13 442.666 1105.13 449.333 1127.27C455.2 1146.33 459.466 1157.4 466.8 1172.33C472.4 1183.67 473.866 1188.33 476.133 1202.2C478.8 1218.47 482 1229.4 494 1263.67C499.6 1279.8 500.4 1283.4 501.466 1299C504.533 1342.47 516.666 1391.93 529.2 1411.27C536 1421.93 536.133 1422.33 537.2 1439.93C538 1453.93 538.533 1456.2 542.533 1463.8C554.133 1486.07 573.2 1508.33 589.866 1519.13C595.066 1522.6 603.2 1528.47 608 1532.33C627.6 1547.93 637.733 1552.73 710.266 1581C725.6 1586.87 732 1590.07 732.4 1591.8C732.8 1593.13 732.8 1600.33 732.4 1607.93C731.6 1623.4 734 1639.93 738.533 1649.27C745.066 1662.73 750.533 1671.13 754.133 1673.27C761.066 1677.27 774.933 1678.6 791.6 1676.87C799.866 1675.93 807.066 1675.67 807.6 1676.2C808.133 1676.6 807.733 1688.87 806.933 1703.4C804.266 1748.07 804.666 1750.6 816.933 1763.8C828 1775.67 843.066 1780.87 865.6 1781H877.2L878 1788.73C881.466 1821.4 883.066 1827.4 891.466 1838.07C906.133 1856.73 924.4 1861.53 944.4 1851.93C957.2 1845.67 960.133 1846.07 969.2 1855.4C973.333 1859.67 980.4 1865 985.066 1867.53L993.466 1871.93L1016.53 1871.4L1039.47 1871L1043.73 1874.6C1053.73 1883 1076.67 1879.8 1086.13 1868.73C1093.6 1859.8 1096.13 1851.13 1100.67 1819.67C1103.73 1799 1109.73 1775.4 1114 1768.33C1123.07 1752.73 1140.13 1749.53 1173.6 1757C1198.53 1762.47 1208 1763.8 1223.33 1763.93C1240 1764.07 1249.73 1761.53 1255.47 1755.4C1260.53 1750.07 1262.67 1746.2 1262.67 1742.33C1262.67 1736.33 1247.07 1717.53 1228.4 1700.73C1222 1695 1215.73 1688.6 1214.27 1686.33C1212.8 1684.07 1210.27 1675.4 1208.67 1667.13C1204.93 1648.07 1200.13 1638.47 1185.2 1619.8L1173.73 1605.27L1172.93 1583.53C1172.13 1559 1169.6 1546.73 1162.4 1531.93C1156.8 1520.33 1144.93 1508.33 1133.07 1502.33C1121.87 1496.73 1110 1487.8 1098.27 1476.33C1085.87 1464.33 1081.2 1454.47 1080.4 1438.6C1079.2 1418.73 1082.4 1412.47 1100.93 1398.87C1106.27 1394.87 1112.53 1389.13 1114.8 1385.93C1133.87 1360.2 1138.53 1318.87 1127.33 1274.87C1125.6 1267.8 1122.4 1259.27 1120.4 1255.8C1118.4 1252.47 1114.93 1245.4 1112.67 1240.2C1103.47 1219.4 1081.47 1190.2 1059.73 1170.07C983.466 1099.27 976.133 1092.87 939.866 1065.53C891.333 1029 870 1009.4 839.2 973C829.466 961.667 817.333 947.534 812.133 941.667C797.6 925.267 789.466 913.134 772.266 882.867C763.6 867.534 751.466 846.334 745.333 835.667C739.2 825 733.066 813.4 731.6 809.667C730.266 806.067 728 801.8 726.666 800.334C724.266 797.667 721.866 793.134 706.933 760.334C698.4 741.4 683.733 696.867 679.333 675.667C678.133 670.2 675.333 652.467 673.066 636.334C666.133 585.934 666.533 539.267 674 501.534C678.533 479 684.4 460.334 701.2 415.134C709.2 393.8 716 374.734 716.533 372.867C717.6 368.2 711.733 360.2 703.2 354.6C695.466 349.4 688.533 349 680.133 353.4ZM678.133 417C677.733 419.934 674.933 429.134 672.133 437.4C664.8 459.134 660.666 477.4 655.066 515C650.666 544.867 650.133 551 650.133 574.334C650.133 593.934 650.8 605.667 653.066 621.667C666.4 717.134 693.6 788.6 755.066 890.334C790.133 948.2 807.733 971.267 844.133 1007.13C876.533 1038.87 897.066 1056.33 956.666 1102.6C974.266 1116.33 994.666 1132.87 1002 1139.4C1009.33 1145.8 1020.8 1155.4 1027.33 1160.47C1039.73 1170.2 1069.47 1202.87 1082.93 1221.67C1100.13 1245.93 1113.2 1277.67 1119.2 1310.2C1122 1324.6 1121.87 1329.13 1118.8 1341.13C1112.13 1367 1102.8 1382.33 1093.47 1382.33C1087.87 1382.33 1081.47 1385.13 1077.07 1389.53C1068.67 1398.07 1064.8 1414.07 1064.8 1441C1064.67 1459 1064.8 1459 1069.33 1468.07C1078.93 1487 1093.33 1500.73 1125.33 1521.67C1145.33 1534.73 1149.73 1539 1155.07 1550.33C1159.07 1558.87 1159.2 1559.4 1159.6 1583C1159.87 1596.2 1160.4 1609 1160.8 1611.53C1161.33 1614.6 1164.13 1618.73 1169.87 1624.87C1174.4 1629.67 1180.13 1636.6 1182.53 1640.07C1191.6 1653.27 1199.6 1674.87 1202 1691.93C1203.07 1699.8 1206.53 1704.2 1215.07 1708.6C1218.93 1710.47 1226.27 1716.33 1231.47 1721.53C1245.73 1735.67 1250.13 1746.47 1243.73 1750.87C1241.33 1752.6 1236.8 1753 1222 1753C1195.87 1753 1183.6 1750.47 1160 1740.33C1142.4 1732.6 1120.13 1732.87 1113.6 1740.6C1104.93 1751.13 1096.8 1774.73 1089.47 1811.4C1086.53 1826.07 1082.8 1841.53 1081.2 1845.67C1077.87 1854.6 1071.07 1862.73 1063.73 1866.47C1057.47 1869.67 1055.73 1869 1047.47 1859.27L1041.33 1852.07L1046.67 1823.67C1054.93 1779.93 1062.53 1750.73 1067.2 1744.33C1070.53 1739.67 1070.67 1742.73 1067.33 1755.67C1062.27 1775.13 1063.2 1785 1069.47 1778.87C1070.8 1777.4 1076.53 1766.47 1082 1754.47C1091.73 1733.13 1094.4 1728.33 1095.6 1729.53C1096 1729.93 1094.93 1734.33 1093.33 1739.53C1090.13 1749.8 1090.13 1757.67 1093.33 1757.67C1099.87 1757.67 1120.53 1687.93 1114.93 1684.6C1114.27 1684.07 1111.33 1687.67 1108.53 1692.6C1099.73 1707.67 1092.93 1709.53 1077.07 1701.27C1065.33 1695.27 1062 1690.07 1060.67 1675.27C1059.2 1659.27 1063.47 1644.2 1073.47 1629.4C1078.4 1622.33 1078.27 1617.8 1073.2 1609.67L1069.07 1603.13L1055.47 1617.27C1040.27 1633 1035.33 1635.8 1026.8 1633.13C1020.13 1631.13 1010.8 1623 1007.87 1616.47C1004.8 1609.67 1004.67 1597.8 1007.33 1587C1008.53 1582.6 1013.87 1569.8 1019.33 1558.6C1028.67 1539.67 1029.33 1537.93 1027.73 1534.6C1025.47 1529.8 1020.13 1529.13 1016.53 1533.27C1015.07 1535 1011.2 1540.47 1008 1545.67C1000.67 1557.8 997.6 1561 993.6 1561C985.866 1561 971.6 1550.2 964.266 1538.73C959.6 1531.4 956 1520.07 956 1513.13C956 1506.07 964.133 1489.53 972.266 1479.8C988.133 1460.73 990.666 1455.4 985.733 1450.07C982.933 1446.87 980 1447 966.533 1451C950 1455.8 949.066 1455.67 942 1446.73C934.266 1436.87 925.733 1420.07 924.533 1412.33C922.666 1399.53 929.6 1378.87 939.733 1367.67C942.666 1364.33 948.133 1359.93 952 1357.8C959.466 1353.67 957.333 1353.8 982.8 1356.47C990.933 1357.4 996 1355.67 996 1351.93C996 1349 992.4 1346.73 982.266 1343.67C962.133 1337.4 950.8 1324.47 946.666 1302.73C943.733 1288.07 948.666 1270.6 958.933 1258.87C965.866 1250.87 973.066 1246.33 978.533 1246.33C985.2 1246.33 995.866 1252.87 1002.67 1260.87C1009.2 1268.6 1012 1270.07 1014.27 1266.87C1019.07 1260.33 1013.6 1245.4 1002.4 1234.2C994 1225.8 987.2 1222.33 979.066 1222.33C973.333 1222.33 970.533 1221.13 956.266 1212.47C924 1192.87 895.733 1170.07 859.6 1134.73C825.333 1101.13 799.866 1063.93 787.6 1029.67C783.6 1018.47 782.933 1013.53 781.333 984.467C780 960.6 778.533 955.667 774.533 960.467C773.066 962.2 772.533 968.467 772.266 985.934C771.866 1005.8 772.133 1011.13 774.666 1022.6C777.866 1037.53 777.466 1041.27 772.666 1044.47C769.866 1046.2 768.4 1046.33 761.733 1045C750.666 1042.6 745.466 1039.67 736.533 1029.93C721.2 1013.67 699.333 982.467 701.6 980.334C702.133 979.8 707.6 981.4 713.866 983.667C725.733 988.2 734.666 989.4 735.6 986.867C736.666 983.8 729.2 977 723.066 975.534C719.6 974.6 711.866 970.2 704.266 964.867C697.2 959.8 691.066 955.667 690.533 955.667C688.133 955.667 652 894.2 652 890.067C652 886.2 654.4 886.067 664.133 889C669.333 890.6 674 891.4 674.4 891C675.866 889.667 666.666 882.734 657.466 878.067C650 874.334 648.133 872.467 642.933 864.467C635.333 852.734 618.533 819 614.8 807.934C612.266 800.6 612.133 793 614.4 793C614.8 793 618.133 795.4 621.866 798.2C632.266 806.2 645.333 811.534 645.333 807.667C645.333 807 642.533 804.2 639.066 801.4C614.533 781.534 606 768.2 598 737.4C592 714.6 585.866 675.667 588.133 675.667C588.666 675.667 593.733 679.4 599.466 683.934C612 694.334 616.933 697.4 617.733 695.934C618.933 694.2 613.866 684.067 607.6 675.934C594.266 658.6 586.8 643.267 583.066 625.667C580.933 615.4 581.333 602.334 584.8 567C586.933 545.134 587.333 543.4 590.266 533.934C592.4 526.867 596 525.267 596 531.4C596 539.134 604.533 559.667 606.8 557.4C607.466 556.734 608.533 543.4 609.2 527.667C610.133 501.4 610.533 498.067 614 488.334C618.533 475.4 627.866 456.334 634.666 446.334C644.8 431.534 668.266 411.667 675.733 411.667C678.8 411.667 678.933 412.067 678.133 417ZM567.866 623.267C569.466 657.8 572.533 689.934 576 707.667C577.333 714.6 579.2 725 579.866 730.734C580.666 736.6 584.133 753 587.466 767.267C590.8 781.534 593.2 793.934 592.933 794.734C592 797.4 588 786.467 583.866 770.334C578.8 750.6 577.466 746.334 575.866 746.334C569.6 746.334 589.466 828.2 608.8 881.4C627.333 932.334 663.066 1003.53 695.066 1053.4C700.666 1062.07 705.6 1071.27 706.133 1073.67C706.933 1078.47 705.866 1083.67 704 1083.67C701.6 1083.67 687.866 1065 671.6 1039.67C662.4 1025.4 652.666 1010.33 649.733 1006.33C644.8 999.267 644.666 999.134 644.266 1002.73C644 1005.27 646.533 1012.2 652.4 1024.07C662.8 1045.67 674.666 1064.87 693.466 1091C712 1116.73 719.2 1130.33 714.4 1130.33C713.6 1130.33 706.266 1123.67 698.133 1115.4C687.866 1105.13 683.2 1101.13 682.933 1102.73C682 1107.13 696.666 1129.4 709.733 1143.53C714.8 1149 721.066 1156.6 723.6 1160.6C729.733 1169.67 728.533 1171.67 716.666 1171.67C704.8 1171.67 699.733 1168.33 686 1151.93C671.733 1134.73 653.066 1109.8 650.133 1103.93C648 1099.93 648 1099.53 650.133 1098.73C651.733 1098.2 653.333 1099.13 655.466 1101.67C657.866 1104.73 659.733 1105.53 665.733 1106.07C669.866 1106.33 673.333 1106.07 673.866 1105.27C674.933 1103.53 663.333 1093.67 644.266 1079.8C627.333 1067.53 625.333 1065.67 615.866 1051.93C608.4 1041.13 593.333 1012.87 593.333 1009.67C593.333 1006.87 594.533 1007.13 603.733 1011.8C611.866 1016.07 624 1018.47 624 1015.93C624 1015.27 618.266 1010.07 611.2 1004.47C604.133 999 592.533 988.867 585.466 982.067C572.8 969.8 572.533 969.4 564.266 951C553.466 927.134 548.266 912.2 550 910.467C550.933 909.534 555.066 911.134 562.666 915.667C574 922.334 579.466 924.6 580.933 923.267C582.266 921.8 576.133 913.667 568.933 907.4C560.4 900.067 550.266 885.4 542.533 869.534C538.266 860.734 536.533 854.6 534 840.734C532.4 831 528.933 813.534 526.533 802.067C524.133 790.467 522.666 780.6 523.066 780.067C524.933 778.334 532.8 783.534 543.733 793.667C559.466 808.067 560.4 805 546.666 783.667C528 754.734 519.866 733 519.866 712.334C519.866 692.734 526.666 659.534 533.6 645.934C542 629.267 564.933 592.067 566.133 593.267C566.4 593.667 567.2 607.134 567.866 623.267ZM610.666 840.334C618.133 860.867 625.733 882.2 627.6 887.667C629.333 893.134 633.6 902.734 636.8 908.867C640.133 915 645.2 925.267 647.866 931.667C655.866 949.934 691.466 1012.2 704.666 1031C710.933 1039.93 716 1049.27 716 1052.07C716 1054.73 711.6 1058.33 709.733 1057.27C708.8 1056.73 705.466 1050.87 702.266 1044.33C698.933 1037.67 688.933 1019.4 680 1003.67C649.6 949.667 624 895.267 607.333 848.2C597.466 820.467 591.866 797.534 595.866 801.667C596.533 802.467 603.2 819.8 610.666 840.334ZM511.066 828.6C512.133 830.734 515.466 842.2 518.533 854.334C533.6 914.734 551.2 963.667 578.666 1021.67C582.533 1029.67 588.266 1042.33 591.6 1049.67C599.066 1066.6 612.266 1086.47 650 1137C667.066 1159.93 679.6 1177.8 678.666 1178.07C673.333 1179.93 617.733 1114.2 597.066 1081.67C575.2 1047.27 556 1011.8 543.2 982.2C537.733 969.534 532.666 958.467 531.866 957.667C529.466 955.534 531.6 965 536.933 981C555.6 1037.27 592.666 1101 642.666 1163C665.866 1191.8 671.066 1199.67 669.466 1204.07C668.4 1207.13 665.466 1204.07 638.4 1171C616.933 1144.87 611.2 1138.73 609.866 1139.93C607.066 1142.87 623.333 1166.87 647.066 1194.47C656.8 1205.93 665.866 1217.4 667.066 1219.93C668.266 1222.47 670.4 1230.6 671.866 1237.93C674.933 1253.8 677.2 1261.53 687.2 1288.87C691.333 1300.07 694.666 1310.2 694.666 1311.13C694.666 1315.27 689.333 1312.47 678 1302.6C662.4 1289 639.733 1265.13 636.933 1259.4C634.4 1254.07 635.333 1252.73 642.8 1251.8C653.2 1250.33 650.933 1247.13 636.8 1243.53C624.133 1240.33 600 1221.67 589.466 1207L585.2 1201H594.666C600 1201 606.133 1200.2 608.933 1199C613.466 1197.13 613.6 1196.87 611.466 1194.47C610.266 1193.13 604.933 1190.33 599.6 1188.33C594.4 1186.33 588.4 1183.53 586.533 1182.2C584.666 1180.87 581.466 1179.4 579.466 1178.87C571.333 1176.87 556.666 1157.93 538.933 1126.87C529.6 1110.33 529.733 1109.27 540.933 1115C552.133 1120.73 559.6 1122.2 560.8 1119.13C562 1116.2 559.466 1113.53 549.2 1106.87C537.866 1099.67 524 1086.73 518.8 1078.47C506.933 1060.07 486.8 1000.73 486.666 983.934C486.666 981.667 487.066 979.667 487.733 979.667C488.266 979.667 491.866 982.067 495.733 984.867C502.266 989.8 511.466 993.934 512.8 992.734C513.066 992.334 511.733 989.934 509.6 987.4C499.866 975.134 495.733 967.534 490.533 951.667C485.733 937.134 484.8 933 484.266 920.067C482.933 889 493.066 842.6 504.266 828.334C507.6 824.067 508.8 824.067 511.066 828.6ZM485.866 1051C503.6 1098.47 523.466 1140.33 540.8 1166.87C574 1217.53 608 1258.33 652.666 1301C678 1325.27 686.933 1332.87 703.733 1344.87C721.466 1357.53 728.533 1365.53 724.133 1368.2C722.666 1369.13 703.6 1356.6 686 1343.13C678.666 1337.53 668.8 1330.07 664 1326.73C649.6 1316.33 611.333 1278.87 594 1258.33C569.6 1229.27 549.2 1202.47 535.2 1181.27C528.266 1170.87 522.133 1162.33 521.6 1162.33C519.066 1162.33 517.6 1165.4 518.666 1168.87C522.933 1183.93 556.4 1234.33 562.133 1234.33C563.2 1234.33 565.333 1237.13 566.8 1240.6C572 1252.87 587.466 1271.4 618.4 1302.87C643.733 1328.47 661.466 1344.2 680.666 1358.33C697.866 1370.87 701.333 1374.2 701.333 1377.93C701.333 1381.93 698 1381.93 691.866 1377.8C689.333 1376.07 684.533 1373.27 681.2 1371.8C678 1370.2 670 1364.73 663.333 1359.53C635.066 1337.27 627.6 1331.67 625.866 1331.67C617.066 1331.67 644.133 1359.8 674 1381.67C693.466 1395.93 692.666 1394.6 696 1421.53C696.8 1428.07 698.666 1435.67 700.133 1438.47C701.466 1441.27 702.133 1443.8 701.466 1444.2C698.8 1445.93 679.333 1436.33 670.533 1429.13L667.333 1426.47L672.4 1421.4C675.066 1418.6 677.333 1415.53 677.333 1414.6C677.333 1411.93 671.2 1410.33 661.6 1410.33C645.866 1410.2 638.666 1407.13 622.8 1393.27L616.8 1388.07L624.933 1383.8C629.466 1381.4 634.133 1378.33 635.333 1377C637.466 1374.73 637.333 1374.33 633.466 1372.33C631.2 1371.27 625.2 1369.8 620.266 1369.13C610.8 1367.93 607.333 1366.6 597.333 1359.8C594 1357.53 590.266 1355.67 589.066 1355.67C583.2 1355.67 567.2 1336.47 560.8 1321.8C558.933 1317.53 557.333 1313.8 557.333 1313.67C557.333 1313.4 563.2 1313.53 570.4 1313.93C592.666 1315 591.866 1310.07 568.133 1300.87C560.4 1297.8 550.4 1293.53 546 1291.27C527.466 1281.93 502.533 1249.53 493.066 1222.33C490.666 1215.53 486.666 1198.6 486.666 1195.4C486.666 1194.73 491.066 1197.93 496.4 1202.6C508.933 1213.8 511.866 1215.67 516.266 1215.67C518.933 1215.67 520 1215 520 1213.27C520 1210.07 518.133 1207.8 510 1201.67C498 1192.47 493.2 1187.13 489.066 1179C486.8 1174.6 481.466 1164.73 477.2 1157.27C472.8 1149.67 468.4 1140.33 467.2 1136.6C466 1132.73 463.733 1126.07 462.133 1121.67C459.6 1114.33 459.333 1111 459.333 1080.33V1047L463.866 1038.33C469.733 1026.87 473.466 1021.93 474.8 1023.27C475.333 1023.8 480.4 1036.33 485.866 1051ZM764 1068.33C780.933 1072.87 796.533 1083.53 803.466 1095.4C810.8 1107.93 825.066 1124.87 847.2 1147C873.066 1172.73 896.8 1193 926.266 1214.47C945.066 1228.07 952 1234.2 952 1237.13C952 1237.8 949.733 1238.33 947.066 1238.33C937.6 1238.33 916.933 1225.13 882.266 1197.27C863.866 1182.33 856.8 1177 855.466 1177C853.733 1177 854.8 1184.6 857.2 1188.47C863.333 1198.47 883.466 1215.67 910.666 1234.33C934.533 1250.6 939.066 1255 934.666 1257.67C932.4 1259 916.266 1249.67 898 1236.33C860.266 1209 846.666 1200.33 846.666 1204.07C846.666 1210.87 903.6 1260.2 922.933 1270.2C929.866 1273.8 930 1274.07 930.4 1280.2L930.8 1286.6L919.066 1280.2C912.666 1276.73 892.8 1265.8 875.066 1256.07C857.2 1246.33 842.4 1238.33 842 1238.33C841.6 1238.33 841.333 1239.4 841.333 1240.73C841.333 1245.93 856.266 1257 896.666 1281.53C920.533 1296.07 923.6 1298.47 926.133 1304.6C928.666 1310.6 928.533 1318.2 925.866 1319.27C918.666 1321.93 885.866 1305.13 849.333 1279.93C833.733 1269.13 827.333 1264.07 808.533 1247C800.4 1239.67 789.466 1229.93 784.266 1225.27C768.666 1211.53 748.666 1178.87 740.133 1153.4C734.266 1136.07 731.866 1123.8 731.066 1106.33C730 1083.53 733.466 1071 741.866 1067.67C746.266 1065.93 755.866 1066.2 764 1068.33ZM738 1203.4C745.2 1207.27 747.066 1209 758.933 1223C773.066 1239.67 791.466 1257.53 807.333 1269.67C834 1290.47 885.6 1323.27 909.333 1334.6C915.6 1337.67 921.733 1341 923.066 1342.07C926 1344.6 926.133 1350.33 923.2 1350.33C919.333 1350.33 862.133 1321.27 845.733 1311C829.466 1300.87 822.533 1298.33 821.6 1302.47C821.466 1303.67 822.666 1306.47 824.533 1308.6C829.2 1314.07 866.8 1338.87 888 1350.47C906.133 1360.33 912.8 1365.27 911.333 1367.67C910.933 1368.47 908.933 1369 907.2 1369C902.266 1369 869.733 1356.6 852.133 1348.07C831.6 1338.07 821.866 1337.8 830 1347.4C835.333 1353.8 851.466 1363.13 875.066 1373.67C886.933 1378.87 898.533 1384.2 900.933 1385.4C905.866 1388.07 909.333 1392.47 909.333 1396.33C909.333 1401.27 907.333 1402.6 900.4 1402.6C893.2 1402.47 836.533 1389.67 823.466 1385C812.533 1381.27 796 1372.2 775.333 1358.6C765.866 1352.33 755.2 1345.67 751.866 1343.8C748.4 1341.8 738.666 1333.67 730.266 1325.4C718.8 1314.33 714.666 1309.4 714 1306.07C713.466 1303.67 712 1300.2 710.8 1298.33C705.2 1290.2 694.266 1261.13 691.333 1246.87C686.4 1223.13 691.2 1204.73 703.066 1201C705.466 1200.33 713.066 1199.93 720 1200.2C729.866 1200.47 733.866 1201.27 738 1203.4ZM520.266 1300.6C522.133 1302.73 527.466 1310.07 532 1317C563.6 1364.6 601.6 1403.27 644.133 1431C651.733 1435.93 665.466 1445 674.666 1451C693.866 1463.67 705.066 1469.53 714.133 1471.8C722.133 1473.8 728.933 1477.13 739.066 1483.93C747.6 1489.67 749.333 1493.8 742.666 1492.33C718.4 1487 635.866 1440.87 608 1417C595.466 1406.2 591.466 1405.4 596.133 1414.6C603.466 1429 632.133 1455 663.6 1475.8C671.6 1481.13 690.666 1491.53 706 1499.13C721.466 1506.6 735.2 1513.8 736.666 1515C739.2 1517.13 738.933 1517.13 732.4 1516.47C728.533 1516.07 720.533 1514.33 714.666 1512.33C703.066 1508.73 696.8 1508.07 697.6 1510.47C697.866 1511.27 704.4 1516.33 712 1521.53C719.6 1526.73 726 1531.8 726.4 1532.73C726.666 1533.67 725.2 1534.73 722.8 1535.13C720.533 1535.67 718.666 1536.47 718.666 1537.13C718.666 1539.4 739.066 1551.67 742.8 1551.67C745.6 1551.67 750.666 1557.27 750.666 1560.33C750.666 1565.93 741.466 1575.53 736 1575.53C734.933 1575.67 728.933 1573.53 722.666 1570.87C716.4 1568.2 701.6 1562.6 689.6 1558.33C663.466 1548.87 653.733 1543.8 646.666 1536.2C640.666 1529.67 639.866 1525.67 644.4 1524.2C650.533 1522.33 654.4 1515.93 650.666 1513.67C649.866 1513.27 643.466 1512.2 636.4 1511.53C615.333 1509.4 601.6 1503.67 588.8 1491.8C576.4 1480.2 550.666 1448.07 550.666 1444.2C550.666 1441.4 552.8 1441.93 565.466 1447.8C575.066 1452.2 577.733 1452.87 580 1451.67C581.466 1450.87 582.666 1449.53 582.666 1448.73C582.666 1447.8 573.066 1437.53 561.2 1425.8C541.2 1405.67 539.466 1403.53 534.133 1392.33C523.466 1369.93 516.533 1346.73 514.666 1328.07C513.466 1315.27 514.133 1297 516 1297C516.4 1297 518.4 1298.6 520.266 1300.6ZM791.333 1390.2C832.933 1408.2 855.333 1414.87 901.333 1422.6C911.2 1424.33 911.333 1424.47 911.333 1428.33V1432.33L900.666 1432.73C887.2 1433.27 863.2 1430.07 842.933 1425C824.933 1420.47 824 1420.33 824 1422.87C824 1429.4 856 1440.87 888.666 1446.2C913.066 1450.2 925.333 1455.13 925.333 1461.13C925.333 1465.93 919.733 1466.73 892 1465.8C864 1465 849.733 1462.87 842.533 1458.47C837.733 1455.53 833.333 1454.87 833.333 1457C833.333 1460.87 851.733 1471.53 868.133 1477.13C875.6 1479.53 881.066 1480.07 910 1481C928.4 1481.67 943.466 1482.2 943.733 1482.2C943.866 1482.33 944 1483.4 944 1484.73C944 1487.4 941.2 1490.33 936.666 1492.73C931.066 1495.53 906.266 1497.13 863.866 1497.13C816.533 1497.13 813.466 1496.73 791.866 1489.27C751.333 1475.27 726 1451.93 719.2 1422.73C716.266 1409.8 719.333 1393.93 726 1387.67C731.733 1382.33 746 1378.2 756.666 1378.73C764.8 1379.27 769.2 1380.73 791.333 1390.2ZM936 1511.8C936 1514.07 928.4 1521 926 1521C924.8 1521 920.266 1523.13 916.133 1525.67C909.466 1529.8 907.066 1530.47 895.066 1531.67C882.266 1532.87 870.666 1536.07 870.666 1538.33C870.666 1541.93 913.466 1540.73 930.266 1536.87C934.133 1535.93 937.733 1535.67 938.266 1536.2C940 1537.93 933.333 1541.93 917.066 1549C894.133 1559.13 893.066 1561.8 911.866 1561.4C920.933 1561.27 925.6 1560.33 934.533 1557.13C940.8 1554.87 946.266 1553 946.933 1553C949.066 1553 948 1557.53 944.8 1561.67C936.133 1573 911.066 1587.93 865.333 1609C835.466 1622.73 826.4 1628.87 807.066 1648.47C798.133 1657.53 790 1665 789.066 1665C784.533 1665 773.066 1660.6 769.333 1657.4C761.066 1650.6 753.6 1629.27 755.066 1617C756.266 1606.6 762.266 1588.2 768.133 1577C778.4 1557.13 788.666 1547.4 811.333 1535.93C824.533 1529.4 836.133 1526.47 862.4 1523.67C888 1520.73 907.333 1517.4 922.666 1513C932.8 1510.07 936 1509.8 936 1511.8ZM742.666 1536.47C742.666 1536.73 741.466 1537 739.866 1537C738.4 1537 737.466 1536.47 738 1535.67C738.666 1534.6 742.666 1535.27 742.666 1536.47ZM763.333 1539.67C764.4 1541.4 760.666 1542.87 757.866 1541.8C755.2 1540.73 756.666 1538.33 760 1538.33C761.333 1538.33 762.933 1539 763.333 1539.67ZM966 1577C966.4 1577.67 966.133 1579.4 965.466 1580.87C963.6 1584.33 944.4 1599.53 934.133 1605.8C919.866 1614.47 912.666 1623 916.133 1627.13C918 1629.53 920.266 1628.47 942.8 1615.67C953.066 1609.67 961.866 1605 962.133 1605.4C962.666 1605.93 944.8 1623.4 934.133 1632.6C927.2 1638.6 927.066 1641 933.6 1641C941.2 1641 969.866 1623.67 976.933 1614.87C980 1611.13 981.466 1610.2 983.6 1610.87C992.666 1613.8 985.466 1624.07 950 1659C932.266 1676.47 919.866 1690.07 916.666 1695C910.533 1704.87 897.2 1723.13 884.266 1739.4C873.466 1753 866 1758.33 858.133 1758.33C849.333 1758.33 835.066 1754.33 829.6 1750.33C815.866 1740.47 811.866 1715.13 818.8 1682.07C820.933 1671.67 827.6 1658.73 833.866 1652.47C841.6 1644.73 857.733 1634.2 866.4 1631.4C878 1627.53 909.866 1609.27 938.533 1589.93C948.533 1583.27 962 1575.67 964 1575.67C964.666 1575.67 965.6 1576.2 966 1577ZM998.666 1639.27C998.533 1641.4 990.533 1650.87 974.133 1668.47C952.933 1691.13 952.4 1693.13 969.866 1684.07C975.466 1681 983.466 1675.13 989.466 1669.4C1007.33 1652.33 1003.47 1659 982.266 1681.8C966.933 1698.33 964.933 1704.6 977.066 1698.33C980.933 1696.33 990.666 1687.67 1003.07 1675.13C1028.4 1649.27 1028.67 1651.53 1004.93 1691.27C985.733 1723.4 977.333 1742.2 963.2 1784.07C956.133 1805.13 949.2 1823.8 947.866 1825.53C945.333 1828.87 923.733 1837 917.733 1837C916 1837 911.466 1833.93 906.8 1829.53C889.6 1813.67 884.133 1791.13 892 1768.47C895.866 1757.13 911.866 1728.07 920.4 1716.73C945.066 1683.93 998.933 1630.6 998.666 1639.27ZM1020.67 1707.27C1010.53 1728.2 1002.67 1746.33 1002.67 1749.13C1002.67 1752.47 1007.73 1746.07 1019.73 1727.67C1033.33 1706.87 1044.27 1693 1045.07 1695.53C1045.33 1696.33 1042 1702.87 1037.6 1710.07C1026.13 1728.47 1017.33 1750.07 1017.33 1759.4C1017.33 1762.6 1017.47 1762.6 1019.87 1760.47C1021.33 1759.13 1026.53 1751.67 1031.47 1743.8C1045.6 1721.27 1057.47 1706.07 1059.33 1707.93C1059.73 1708.2 1056.67 1717.13 1052.53 1727.8C1037.6 1766.73 1034.93 1776.33 1030.8 1807C1027.47 1830.73 1025.73 1839.27 1023.07 1843.4C1017.6 1852.2 1003.2 1854.33 991.2 1848.33C978.4 1841.67 977.6 1840.6 975.2 1824.73C973.2 1811.27 973.333 1810.2 975.866 1799.4C979.2 1785.4 991.466 1750.73 999.466 1732.6C1004.67 1720.87 1021.33 1693.53 1027.87 1685.93C1032.67 1680.2 1030.27 1687.67 1020.67 1707.27ZM1085.33 1728.2C1083.07 1731.13 1081.07 1729.4 1082.8 1726.07C1083.87 1724.2 1084.67 1723.8 1085.73 1724.87C1086.67 1725.8 1086.53 1726.87 1085.33 1728.2Z" fill="white"/>
<path id="Vector_2" d="M786.666 997.933C786.666 1007.67 790.533 1022.6 795.999 1033.67C808.133 1058.33 827.733 1076.73 829.066 1064.87C829.333 1062.47 827.599 1059.13 822.533 1052.87C814.666 1043 808.666 1033 798.266 1012.33C794.266 1004.2 789.999 996.467 788.799 995C786.799 992.467 786.799 992.6 786.666 997.933Z" fill="white"/>
<path id="Vector_3" d="M959.866 1277.8C958.933 1279 957.866 1283.67 957.6 1288.33C957.066 1296.07 957.333 1297 961.066 1301.13C964.4 1304.87 965.333 1305.27 967.066 1303.8C970.266 1301.27 973.6 1291.4 973.066 1286.2C972.8 1282.87 971.6 1281 968.133 1278.73C962.8 1275.13 962.133 1275 959.866 1277.8Z" fill="white"/>
<path id="Vector_4" d="M940.134 1395.13C932.134 1400.87 932.134 1413.67 940.267 1417.8C945.467 1420.47 947.334 1419.67 950.534 1413.13C954.534 1405.4 955.467 1397.93 952.667 1395.27C949.867 1392.33 944.134 1392.33 940.134 1395.13Z" fill="white"/>
<path id="Vector_5" d="M969.333 1512.33C967.333 1514.87 968.4 1524.6 971.333 1530.33C973.866 1535.27 974.666 1535.27 978.8 1530.87C984.933 1524.33 981.733 1510.33 974 1510.33C972.266 1510.33 970.266 1511.27 969.333 1512.33Z" fill="white"/>
<path id="Vector_6" d="M1024.93 1604.6C1021.73 1608.33 1020.8 1613.53 1023.2 1615.53C1028.4 1619.93 1036 1612.47 1033.33 1605.67C1031.87 1601.8 1028 1601.27 1024.93 1604.6Z" fill="white"/>
<path id="Vector_7" d="M1083.6 1668.6C1081.87 1670.2 1082.67 1675.27 1084.8 1677C1087.2 1679.13 1094.27 1679.27 1096.13 1677.4C1098.13 1675.4 1091.2 1667.67 1087.47 1667.67C1085.73 1667.67 1084 1668.07 1083.6 1668.6Z" fill="white"/>
<path id="Vector_8" d="M1059.87 1839.27C1050.67 1848.73 1048 1852.33 1049.6 1852.73C1055.6 1853.93 1076 1836.33 1076 1829.8C1076 1827.8 1075.2 1826.33 1074.27 1826.33C1073.33 1826.33 1066.8 1832.2 1059.87 1839.27Z" fill="white"/>
<path id="Vector_9" d="M640 1210.2C640 1214.07 649.733 1227.67 658.133 1235.67C671.6 1248.33 667.867 1237.8 652 1217.67C644.133 1207.8 640 1205.27 640 1210.2Z" fill="white"/>
<path id="Vector_10" d="M752.932 1106.87C751.066 1111.53 750.532 1132.07 751.866 1144.47C753.466 1159.93 756.399 1167.8 764.399 1178.2C769.866 1185.27 789.999 1203.67 792.132 1203.67C794.132 1203.67 793.466 1198.47 791.066 1194.6C789.866 1192.6 785.466 1186.2 781.199 1180.33C767.999 1161.53 763.866 1150.6 761.332 1127.13C760.532 1119.8 759.199 1111.67 758.532 1109.27C757.066 1104.87 754.132 1103.53 752.932 1106.87Z" fill="white"/>
<path id="Vector_11" d="M769.333 1129.53C768.266 1131 768.266 1132.87 769.2 1136.73C770.666 1141.93 779.866 1157.27 782.533 1158.87C786.8 1161.53 784.8 1149.53 778.666 1136.6C775.2 1129.4 771.733 1126.73 769.333 1129.53Z" fill="white"/>
<path id="Vector_12" d="M708.666 1234.33C705.199 1238.2 704.533 1251.8 707.333 1264.2C710.933 1280.73 719.599 1296.33 732.799 1310.2C740.799 1318.73 745.866 1322.87 750.799 1325C756.799 1327.53 757.999 1327.67 759.599 1326.07C761.199 1324.33 760.266 1322.87 752.933 1315.53C743.599 1306.07 725.466 1282.33 721.199 1274.07C719.066 1269.93 718.266 1264.6 717.466 1251.67C716.933 1242.33 715.999 1234.07 715.466 1233.13C713.999 1230.87 711.333 1231.4 708.666 1234.33Z" fill="white"/>
<path id="Vector_13" d="M736.666 1273.93C740.799 1283.27 745.866 1290.07 750.133 1291.93C754.133 1293.8 755.199 1292.73 754.133 1288.6C753.333 1285.27 736.666 1266.33 734.533 1266.33C733.866 1266.33 734.933 1269.8 736.666 1273.93Z" fill="white"/>
<path id="Vector_14" d="M730.666 1419.93C730.666 1423.8 731.866 1429.4 733.199 1432.33C736.666 1440.2 751.599 1458.07 757.733 1461.93C763.733 1465.67 790.799 1473 798.799 1473C808.666 1473 805.066 1469.8 781.466 1457.53C773.066 1453.27 764.399 1447.8 762.133 1445.53C759.866 1443.27 756.266 1440.33 754.133 1438.87C751.999 1437.53 745.866 1431.13 740.399 1424.6L730.666 1412.87V1419.93Z" fill="white"/>
<path id="Vector_15" d="M757.334 1422.33C757.334 1423 758.401 1424.73 759.734 1425.93C761.201 1427.27 765.067 1431 768.401 1434.07C771.867 1437.27 774.667 1440.47 774.667 1441.13C774.667 1443 780.534 1442.6 783.201 1440.6C786.667 1438.07 784.401 1434.47 775.467 1428.47C765.201 1421.67 757.334 1419 757.334 1422.33Z" fill="white"/>
<path id="Vector_16" d="M778.266 1603.93C777.066 1607.27 780.799 1613.13 787.199 1618.07C795.066 1624.2 795.999 1615.27 788.133 1607.53C782.933 1602.2 779.466 1601 778.266 1603.93Z" fill="white"/>
<path id="Vector_17" d="M766.666 1617.13C766.666 1631.53 785.333 1649.67 791.999 1641.67C794.399 1638.73 792.399 1634.73 785.999 1630.33C782.799 1628.2 777.199 1623 773.466 1618.73L766.666 1611.13V1617.13Z" fill="white"/>
<path id="Vector_18" d="M825.333 1691C823.333 1696.2 825.466 1718.73 828.666 1725.4C831.6 1731.67 839.466 1740.6 844 1743C847.333 1744.73 848.533 1744.73 854.933 1742.87C858.8 1741.67 864.4 1739.53 867.2 1738.07C872.266 1735.53 872.4 1735.27 870 1733.53C868.266 1732.2 863.466 1731.67 854.4 1731.67C842.133 1731.67 840.933 1731.4 837.866 1728.33C832.666 1723.13 830.4 1716.07 829.6 1703C828.933 1688.6 827.6 1685.13 825.333 1691Z" fill="white"/>
<path id="Vector_19" d="M844.933 1704.47C843.066 1706.33 844.133 1713.67 846.533 1716.6C848 1718.33 849.333 1719.67 849.733 1719.67C851.066 1719.67 851.733 1713.4 850.933 1709C850 1704.6 847.066 1702.47 844.933 1704.47Z" fill="white"/>
<path id="Vector_20" d="M910.8 1783.53C908.933 1784.73 918 1793.67 923.2 1795.67C931.733 1798.87 933.333 1793.53 925.6 1788.33C919.6 1784.33 912.933 1782.2 910.8 1783.53Z" fill="white"/>
<path id="Vector_21" d="M901.334 1791.93C901.334 1796.07 909.467 1813 913.067 1816.07C922.401 1824.47 941.334 1819.93 941.334 1809.4C941.334 1806.2 940.134 1805.67 930.001 1804.33C922.534 1803.27 916.934 1800.87 912.001 1796.33C910.134 1794.73 907.067 1792.33 905.067 1791C901.334 1788.73 901.334 1788.73 901.334 1791.93Z" fill="white"/>
<path id="Vector_22" d="M991.466 1799.13C988 1802.47 988.933 1805.8 993.866 1808.2C998.933 1810.6 1003.73 1810.87 1006.67 1809C1008.27 1808.07 1008.13 1807.27 1005.33 1804.33C1002.4 1801.13 996 1797 994.133 1797C993.866 1797 992.533 1797.93 991.466 1799.13Z" fill="white"/>
<path id="Vector_23" d="M983.467 1822.6C985.6 1829.67 988.4 1833.4 993.733 1835.8C1000.27 1838.73 1002.67 1838.87 1007.2 1836.87C1010.8 1835.13 1012.27 1832.6 1011.2 1829.8C1010.67 1828.33 986.933 1819.53 983.6 1819.67C982.933 1819.67 982.933 1821 983.467 1822.6Z" fill="white"/>
</g>
</g>
<g id="296742 2" opacity="0.8" clip-path="url(#clip1_5040_4963)">
<g id="Group_2">
<path id="Vector_24" d="M3066.27 354.333C3055.73 361.133 3052.27 366.333 3053.2 374.067C3054.13 381.533 3059.6 397.133 3066.93 413.533C3070.13 420.733 3073.47 429.933 3074.13 433.8C3074.93 437.8 3077.87 447.267 3080.67 454.867C3095.33 494.067 3100.53 535.267 3097.87 594.6C3095.87 643.133 3091.33 670.6 3079.2 710.2C3070.4 739.133 3067.47 746.733 3055.73 772.333C3042.93 799.933 3034.13 816.6 3013.73 851.667C3004.53 867.4 2993.33 887 2988.67 895.267C2977.6 915 2964.93 931.667 2934 967C2890.27 1017 2878 1028.47 2831.73 1063.13C2793.07 1092.2 2786.67 1097.4 2766 1116.87C2756.8 1125.53 2744.53 1136.73 2738.67 1141.93C2732.8 1147 2723.73 1155.4 2718.4 1160.47C2713.2 1165.53 2705.6 1172.73 2701.6 1176.6C2679.47 1197.4 2647.47 1248.33 2641.33 1272.33C2635.47 1295.8 2633.73 1325.4 2637.2 1346.33C2641.47 1372.2 2650.4 1387.8 2668.13 1399.67C2685.2 1411.13 2688 1416.47 2688 1436.33C2687.87 1450.07 2687.73 1451.53 2684 1458.33C2677.33 1470.6 2657.2 1489.53 2638.67 1501C2619.6 1512.73 2610.67 1521.27 2604.8 1533C2598.27 1546.33 2596.8 1554.2 2595.2 1581.53L2593.87 1606.73L2582 1621.53C2566.93 1640.33 2564.13 1645.93 2560 1666.2C2558.13 1675.27 2556.67 1683 2556.67 1683.27C2556.67 1683.53 2548.4 1691.93 2538.27 1702.07C2519.73 1720.6 2506 1738.47 2506 1744.2C2506 1747.93 2510.8 1755.13 2515.47 1758.73C2520.27 1762.2 2528 1763.53 2544 1763.67C2561.33 1763.67 2575.87 1761.8 2595.87 1757C2625.73 1749.67 2644.13 1752.87 2653.87 1767.13C2659.47 1775.27 2662.13 1787 2670 1838.73C2671.47 1849 2677.07 1862.2 2682.67 1868.73C2692.4 1880.2 2714.53 1883.27 2724.93 1874.6L2729.2 1871L2752 1871.4L2774.93 1871.93L2783.07 1867.8C2790.27 1864.2 2796.53 1858.87 2803.73 1850.47C2807.2 1846.2 2814.27 1846.87 2824.13 1852.33C2833.47 1857.53 2839.47 1858.2 2850.93 1855.13C2861.73 1852.2 2869.6 1847.93 2873.73 1842.6C2882.8 1831 2888.67 1813.8 2888.67 1798.33C2888.67 1792.6 2889.07 1786.87 2889.47 1785.67C2891.07 1781.67 2897.47 1779.67 2908.53 1779.67C2933.47 1779.67 2949.2 1771.67 2957.87 1754.47C2964.27 1742.07 2965.07 1723.13 2960.53 1696.73C2958.13 1682.87 2957.87 1679.13 2959.2 1676.2C2960.4 1673.4 2961.33 1672.87 2963.73 1673.53C2983.47 1679.27 2994.4 1679.53 3008 1675C3016.27 1672.2 3019.33 1669.53 3019.33 1665.4C3019.33 1663.53 3021.07 1660.6 3023.2 1658.6C3031.73 1650.6 3035.6 1635.13 3036 1607.67C3036.4 1584.47 3036.13 1586.33 3039.33 1586.33C3042.8 1586.33 3058.93 1580.73 3084 1570.73C3095.07 1566.33 3108.27 1561.27 3113.33 1559.67C3129.73 1554.33 3146.27 1544.2 3174 1522.47C3202 1500.47 3213.2 1487.8 3224.8 1465C3230.8 1453.27 3231.07 1451.27 3229.87 1433.67C3229.6 1431 3231.73 1425.27 3236 1417C3250.4 1389.13 3251.2 1386.87 3256.53 1364.33C3260.53 1347.53 3262.53 1334.47 3264.53 1313.67C3267.6 1282.73 3268.67 1277.53 3280.53 1243.67C3286.27 1227.27 3289.47 1215.4 3291.33 1203.67C3293.87 1188.73 3294.93 1185.4 3302.13 1170.73C3311.2 1152.33 3320.4 1125.4 3324.8 1104.87C3328.8 1086.2 3329.2 1051.4 3325.47 1038.33C3322 1025.93 3316.53 1014.87 3308.8 1005.27L3302 997V941.133V885.267L3286.93 847.4C3278.53 826.6 3269.07 804.6 3265.87 798.333L3260 787L3260.13 769.667C3260.27 760.067 3261.2 744.467 3262.4 735C3265.73 708.467 3265.73 706.467 3263.87 695C3259.6 669.533 3252.93 647.933 3242.53 625.8C3230.93 601.4 3228.4 596.733 3218 581C3205.73 562.333 3204.93 560.867 3202.27 547.667C3198.53 529.133 3190.67 510.733 3182.4 500.467C3177.47 494.467 3175.87 490.6 3169.33 469.133C3166 457.933 3161.07 444.2 3158.53 438.6C3142.53 403.533 3092.93 349 3077.07 349C3075.6 349 3070.67 351.4 3066.27 354.333ZM3102.8 416.2C3112 423 3130 441.4 3136.93 451C3152 472.067 3159.33 499 3159.33 533.267C3159.33 553 3160.67 559.8 3164 557C3166.4 555 3170.53 543.933 3172.67 533.8C3174 527.267 3174.53 526.333 3175.6 528.333C3181.6 538.867 3188 608.067 3184.8 626.067C3182 641 3171.2 662.2 3159.2 676.467C3155.73 680.733 3152.4 685.8 3151.87 688.067C3150.27 695.533 3153.2 695.133 3166.4 685.8C3173.33 681 3179.47 677 3180 677C3182.53 677 3176.27 714.733 3168.13 748.067C3163.6 766.733 3152.93 781.533 3130.4 799.933C3125.07 804.2 3120.67 808.467 3120.67 809.133C3120.67 812.467 3137.2 805.533 3147.07 798.2C3150.93 795.133 3154.67 793.133 3155.07 793.667C3156.4 795 3155.73 809 3154.13 810.733C3153.47 811.667 3146.53 824.867 3138.8 840.333C3131.07 855.667 3123.6 869.533 3122.27 871C3121.07 872.467 3116.13 875.667 3111.33 877.933C3101.87 882.6 3092.53 890.467 3095.2 891.4C3096.13 891.667 3099.73 890.333 3103.33 888.467C3111.73 883.933 3114 883.933 3114 888.867C3114 896.6 3083.6 951 3076.93 955.4C3074.93 956.6 3068.53 961.267 3062.53 965.8C3055.87 970.867 3049.6 974.467 3045.73 975.4C3039.47 977 3032 983.8 3033.07 986.867C3034 989.4 3042.27 988.2 3054.27 983.8C3060.8 981.4 3066.53 979.8 3067.33 980.333C3069.6 981.667 3055.47 1001.8 3035.87 1025C3023.87 1039.4 3024 1039.27 3010.93 1044.47C2998.4 1049.67 2998 1049.67 2998 1047C2998 1045.93 2997.07 1045 2996 1045C2992.27 1045 2991.6 1040.6 2993.6 1025.67C2996.27 1004.73 2996.53 963.533 2994.13 960.467C2992.4 958.467 2992 958.467 2990.27 960.2C2988.8 961.667 2987.87 968.867 2986.67 989.933C2985.2 1014.2 2984.53 1018.87 2981.33 1027.67C2973.47 1049.53 2963.73 1066.6 2939.07 1101.67C2924.13 1122.87 2866.93 1175.93 2837.33 1195.93C2830.8 1200.47 2821.07 1207 2816 1210.47C2804.93 1217.93 2796.93 1221.67 2788.67 1223C2768.13 1226.2 2752.4 1242.07 2752.13 1259.67C2752 1266.2 2752.27 1267 2754.93 1267.4C2757.07 1267.67 2760.4 1265.4 2766.93 1258.87C2780 1245.93 2786.67 1243.8 2797.47 1249C2804.93 1252.6 2813.33 1262.07 2817.73 1271.4C2820.93 1278.07 2821.33 1280.6 2821.33 1293C2821.33 1306.33 2821.07 1307.53 2816.53 1317C2813.73 1322.87 2809.2 1329.53 2805.6 1333.27C2799.47 1339.27 2795.87 1341.13 2780.4 1345.53C2772 1347.93 2770.13 1350.47 2774 1354.33C2777.07 1357.4 2781.47 1357.67 2796 1355.53C2803.87 1354.33 2807.33 1354.33 2812.13 1355.67C2820.13 1357.93 2829.87 1366.87 2834.93 1376.6C2840 1386.07 2844.67 1401.53 2844.67 1408.6C2844.67 1417.13 2831.87 1441.67 2821.73 1452.47L2817.87 1456.6L2806.27 1452.73C2785.07 1445.8 2780.67 1446.2 2780.67 1455.53C2780.67 1461.53 2785.87 1470.07 2794.53 1478.2C2798 1481.4 2802.27 1487 2804.13 1490.73C2808.53 1499.27 2811.73 1514.73 2810.8 1522.07C2808.93 1535.93 2799.2 1548.87 2785.6 1555.67C2775.2 1560.87 2769.47 1561 2766.53 1555.93C2754.8 1536.47 2747.2 1528.2 2742.8 1529.8C2737.73 1531.67 2738.8 1536.6 2748.4 1556.73C2759.87 1580.47 2762.53 1589.13 2762.53 1602.33C2762.4 1617.93 2756.4 1627.13 2742.8 1632.33C2733.87 1635.8 2729.47 1633.67 2713.87 1618.87C2698.67 1604.33 2695.2 1603.13 2691.87 1611.13C2689.33 1617.13 2690.13 1620.87 2696.13 1630.6C2705.07 1645.4 2708.93 1662.87 2706.8 1680.07C2705.47 1690.47 2701.73 1695.53 2691.2 1700.73C2675.6 1708.6 2667.73 1706.6 2660 1692.87C2655.87 1685.67 2652.4 1683.67 2651.6 1688.07C2650.53 1693.67 2663.87 1739.67 2670.13 1751.93C2671.6 1754.87 2673.47 1757 2674.4 1756.6C2677.07 1755.8 2676.93 1745.8 2674.13 1737.53C2667.87 1719.67 2676.8 1732.33 2687.6 1756.6C2697.6 1778.87 2699.47 1781.8 2702.4 1780.6C2705.47 1779.4 2705.33 1774.47 2702 1759.4C2698.67 1744.6 2698.93 1738.87 2702.67 1747C2708.8 1760.6 2717.07 1796.33 2723.33 1836.2L2726.27 1854.6L2719.6 1861.4C2711.2 1869.8 2706.8 1870.33 2699.87 1863.53C2687.47 1851.67 2683.33 1841.67 2679.33 1814.2C2675.73 1788.87 2672.93 1778.33 2664.13 1758.33C2654.8 1736.6 2654.4 1736.33 2634.93 1736.33C2618.13 1736.47 2604.93 1739.53 2591.47 1746.33C2582 1751 2566.93 1753.27 2542.93 1753.53C2527.33 1753.67 2525.6 1753.4 2523.87 1751C2521.33 1747.67 2522.4 1742.6 2527.47 1732.87C2533.2 1722.2 2542.27 1713.27 2552.13 1708.87C2556.8 1706.73 2561.47 1703.53 2562.67 1701.8C2563.73 1700.07 2565.6 1694.2 2566.67 1688.73C2569.2 1675.13 2571.73 1668.2 2580.13 1650.47C2586.13 1637.8 2588.67 1634.07 2595.87 1627.13C2606.4 1617.13 2607.33 1614.07 2607.33 1590.47C2607.33 1550.2 2612.67 1539.93 2643.07 1521.27C2661.47 1509.8 2667.87 1505 2678.27 1494.73C2689.07 1484.2 2696.67 1473.27 2700.67 1462.6C2703.33 1455.67 2703.6 1453.13 2702.93 1434.33C2702.53 1417.4 2701.87 1412.07 2699.33 1404.73C2694.4 1390.2 2686 1382.33 2675.2 1382.33C2661.6 1382.33 2645.87 1346.07 2647.73 1319C2649.33 1296.07 2665.07 1250.6 2678.13 1231.13C2687.2 1217.67 2701.07 1200.6 2712 1189.67C2717.2 1184.47 2722.27 1178.33 2723.6 1176.07C2724.8 1173.8 2731.33 1167.67 2738.27 1162.6C2745.07 1157.67 2754.27 1150.07 2758.67 1145.8C2768.13 1136.73 2783.47 1124.33 2837.33 1082.07C2884.53 1045 2896.27 1035.13 2916.4 1015.4C2940.13 992.067 2968.67 957.4 2993.33 921.667C3008.4 900.067 3043.47 839.267 3058.93 808.333C3080.53 765.4 3097.73 714.2 3108 663C3115.6 624.867 3117.2 610.467 3117.2 574.333C3117.33 542.733 3117.2 540.733 3112.27 510.333C3105.07 465.4 3103.07 457.133 3093.73 431.8C3090.13 421.933 3087.47 413.133 3087.87 412.2C3089.2 408.733 3095.07 410.333 3102.8 416.2ZM3212.27 606.6C3237.6 645.8 3252 689.667 3248.53 717.533C3245.73 739.933 3237.33 760.2 3220.13 786.067C3205.73 807.667 3208.4 809 3228.4 790.067C3234.53 784.333 3240.4 779.667 3241.47 779.667C3244.67 779.667 3243.73 792.333 3238.67 817.267C3232.8 846.2 3226.4 866.467 3218.4 882.467C3213.07 893.133 3210.27 896.867 3199.07 907.933C3191.87 915 3186 921.4 3186 922.2C3186 925.8 3192.67 923.267 3207.87 914.067C3213.6 910.467 3218.67 907.933 3219.07 908.333C3220.93 910.2 3207.2 946.867 3197.6 965.8C3194.4 972.067 3177.87 987.933 3157.6 1004.2C3150.53 1009.93 3144.67 1015.13 3144.67 1015.8C3144.67 1018.47 3154 1016.73 3163.2 1012.33C3168.53 1009.8 3173.2 1007.67 3173.47 1007.67C3176.67 1007.67 3161.33 1039.27 3150.13 1055.8C3143.47 1065.4 3140.67 1068.07 3125.87 1078.87C3104.93 1093.93 3093.73 1103.53 3094.8 1105.27C3095.33 1106.07 3098.8 1106.33 3103.07 1106.07C3109.07 1105.53 3110.8 1104.73 3112.93 1101.93C3115.33 1098.6 3120.67 1096.87 3120.67 1099.4C3120.67 1103.53 3081.73 1154.73 3071.07 1164.6C3066.27 1169.13 3058.93 1171.67 3050.93 1171.67C3037.2 1171.67 3037.73 1170.33 3061.33 1139.8C3077.2 1119.4 3086 1105.93 3086 1102.07C3086 1097.93 3083.73 1099.4 3076.53 1108.47C3072.67 1113.27 3065.87 1120.33 3061.47 1124.07C3054 1130.2 3053.33 1130.6 3052.93 1127.93C3052.27 1123.4 3060.13 1110.07 3075.2 1089.67C3096.4 1061.27 3103.2 1050.33 3119.47 1018.2C3122.27 1012.6 3125.33 1001.27 3124.27 1000.2C3122.8 998.6 3120.67 1001.4 3109.47 1019.53C3095.73 1041.67 3076.67 1070.2 3070.4 1078.07C3065.2 1084.47 3063.33 1084.6 3061.87 1079C3060.4 1073.93 3062.8 1068.73 3075.2 1049.67C3096.8 1016.6 3126.27 960.733 3145.07 917.4C3163.6 874.733 3184.4 806.6 3191.33 765.4C3193.87 750.867 3193.87 743.267 3191.33 745.8C3190.67 746.467 3188 755.4 3185.47 765.667C3182.93 775.933 3179.87 786.733 3178.8 789.667L3176.8 795V789.4C3176.67 786.333 3178.53 776.733 3180.8 768.067C3182.93 759.4 3185.47 749.267 3186.13 745.667C3190.8 721.8 3198.53 654.467 3200 625.667C3200.93 605.667 3202 593 3202.8 593C3203.07 593 3207.33 599.133 3212.27 606.6ZM3173.33 806.6C3170 822.6 3148.53 881.533 3135.73 910.333C3121.33 942.6 3091.33 1000.47 3076.8 1024.2C3074.13 1028.6 3069.07 1037.93 3065.33 1044.87C3061.73 1051.8 3057.87 1057.8 3057.07 1058.07C3056.13 1058.33 3054.67 1057 3053.87 1055.27C3051.6 1050.2 3053.47 1046.07 3069.2 1022.6C3104.27 969.667 3134 908.333 3160 835C3167.87 812.867 3172.13 802.333 3173.33 802.333C3173.87 802.333 3173.87 804.333 3173.33 806.6ZM3265.2 829.933C3269.47 836.467 3277.2 859.533 3280.8 876.467C3282.27 883.8 3283.87 897.4 3284.27 907.133C3284.93 923 3284.67 925.667 3281.47 938.333C3277.2 955.133 3270.93 969.8 3263.47 980.733C3258.27 988.467 3256.67 993 3259.07 993C3259.73 993 3264.4 990.333 3269.47 987C3283.73 977.8 3283.87 977.8 3278.67 1001.4C3274.53 1020.87 3263.07 1052.33 3253.07 1072.2C3248.4 1081.53 3227.47 1102.6 3218.93 1106.73C3210.53 1110.73 3205.33 1115.93 3206.53 1119.13C3207.6 1122.07 3216.13 1120.87 3225.47 1116.33C3237.2 1110.6 3237.73 1111.8 3229.87 1126.33C3220.53 1143.53 3209.87 1158.6 3200.13 1168.47C3192.13 1176.47 3188.27 1179.13 3176 1185C3161.87 1191.67 3156.67 1195 3156.67 1197.13C3156.67 1199.13 3165.33 1201 3174.27 1201H3183.47L3179.07 1207.13C3172.53 1216.33 3158.4 1229 3147.2 1235.93C3138.13 1241.53 3133.33 1243.53 3123.07 1245.67C3120.93 1246.07 3119.33 1247 3119.33 1247.8C3119.33 1249.13 3132.13 1255.67 3135.07 1255.67C3135.87 1255.67 3136.67 1256.2 3136.67 1256.73C3136.67 1258.2 3097.87 1296.2 3088.67 1303.8C3069.47 1319.53 3066.93 1317.8 3078 1296.33C3081.73 1289.13 3084.67 1282.6 3084.67 1281.67C3084.67 1280.6 3086.8 1273.13 3089.47 1264.73C3092 1256.47 3095.33 1244.2 3096.67 1237.4C3099.87 1220.87 3102.4 1216.33 3118.27 1197.67C3133.73 1179.67 3149.2 1159.4 3154.4 1150.2C3158 1144.07 3159.2 1138.73 3156.67 1140.33C3155.87 1140.87 3144.27 1153.93 3130.8 1169.53C3106.93 1197 3099.33 1204.6 3099.33 1200.6C3099.33 1197.53 3112.4 1178.87 3132.93 1152.87C3164.27 1113 3176 1095.27 3197.07 1056.33C3209.6 1033.13 3223.07 1003.53 3231.2 981.133C3241.07 954.2 3239.73 947.8 3229.33 972.6C3216.8 1003 3192 1049.13 3169.33 1084.33C3161.47 1096.6 3140.53 1124.47 3126.8 1141C3113.87 1156.6 3091.73 1179.13 3090.53 1178.07C3089.33 1176.73 3093.33 1170.73 3118.4 1137C3156.27 1086.2 3169.33 1064.87 3189.87 1021C3219.33 958.2 3237.47 907.667 3250 853.267C3252.93 840.467 3256 828.867 3256.8 827.533C3258.8 823.667 3261.6 824.467 3265.2 829.933ZM3301.2 1033.27C3308.8 1048.6 3310.27 1056.07 3310.4 1082.33C3310.4 1113 3306.13 1128.07 3286.53 1165.53C3275.73 1186.33 3272.53 1190.47 3255.6 1204.73C3246.8 1212.33 3244.8 1217 3250.4 1217C3254.53 1217 3262.53 1211.53 3272.4 1201.93C3276.8 1197.8 3280.67 1194.33 3281.07 1194.33C3282 1194.33 3278.4 1213.27 3276 1220.33C3267.47 1245.53 3244.4 1278.07 3227.2 1289.13C3223.47 1291.4 3212.93 1296.33 3203.6 1299.93C3176.8 1310.2 3174.93 1315 3198.27 1313.93L3211.2 1313.27L3205.2 1325.27C3197.87 1339.93 3191.6 1346.87 3177.73 1355.8C3164.13 1364.47 3157.2 1367.53 3147.07 1369.13C3142.67 1369.8 3137.2 1371.4 3135.07 1372.47C3131.2 1374.47 3131.2 1374.6 3133.47 1377.13C3134.8 1378.6 3139.33 1381.8 3143.6 1384.2L3151.47 1388.6L3141.07 1396.6C3126.27 1408.07 3123.73 1409.13 3108.13 1410.2C3089.6 1411.53 3088 1412.73 3095.47 1420.47C3097.87 1423 3099.33 1425.67 3098.93 1426.73C3098 1429.13 3072.8 1443.67 3069.6 1443.67C3066.67 1443.67 3066.8 1442.6 3070.13 1434.73C3072.4 1429.53 3072.93 1425.4 3073.2 1412.33L3073.33 1396.47L3084 1389.13C3098.8 1379.13 3115.2 1365.53 3129.07 1352.07C3141.07 1340.33 3145.73 1333.8 3143.33 1332.33C3141.33 1331.13 3138.4 1333.13 3115.33 1351.53C3103.47 1361 3091.6 1369.8 3088.93 1371.13C3086.13 1372.47 3080.93 1375.67 3077.07 1378.07C3069.87 1382.87 3066 1383 3066 1378.6C3066 1375.4 3071.87 1369.93 3087.33 1359C3106.13 1345.53 3120.27 1333 3144.8 1308.07C3177.07 1275.27 3195.47 1253.67 3199.73 1243.4C3200.8 1240.87 3206.13 1234.2 3211.6 1228.87C3221.87 1218.6 3231.47 1204.33 3242.4 1183C3249.6 1168.87 3250.4 1166.33 3248.67 1163.67C3246.53 1160.33 3243.47 1163.53 3234.4 1178.2C3214.8 1210.2 3166 1269.27 3132.53 1301.67C3100.4 1332.73 3051.07 1368.6 3044.13 1365.93C3039.2 1364.07 3041.73 1361.53 3065.33 1344.2C3109.33 1312.2 3165.73 1252.73 3210.4 1191.27C3241.6 1148.6 3266.13 1099.53 3287.33 1037.27C3290.4 1028.33 3293.47 1021 3294 1021C3294.53 1021 3297.87 1026.6 3301.2 1033.27ZM3031.07 1072.47C3037.2 1079.53 3038.4 1085.67 3037.6 1104.33C3035.87 1139.27 3026.4 1166.47 3003.6 1200.87C2991.73 1218.87 2987.2 1223.53 2957.33 1248.6C2923.07 1277.27 2898.67 1294.87 2876.67 1306.73C2867.2 1311.8 2846.13 1319.67 2841.73 1319.67C2839.2 1319.67 2839.07 1319.13 2839.87 1313.4C2841.47 1301.53 2844.93 1298.47 2884.27 1273.8C2916.27 1253.8 2928.53 1244.73 2928.67 1240.6C2928.8 1237.27 2919.47 1241.53 2888.4 1259.13C2858.27 1276.2 2839.6 1286.07 2838.67 1285.27C2837.73 1284.33 2837.73 1277.8 2838.8 1275.13C2839.2 1273.93 2843.07 1271.13 2847.2 1269C2869.73 1257 2920.67 1212.07 2920.67 1204.2C2920.67 1201.53 2917.47 1201.93 2914.67 1205C2913.33 1206.47 2909.2 1209.4 2905.47 1211.53C2901.73 1213.67 2892.13 1220.33 2884 1226.47C2864 1241.4 2841.07 1256.87 2837.07 1257.8C2835.33 1258.33 2833.47 1258.2 2832.93 1257.8C2830.67 1255.4 2837.73 1248.47 2855.33 1236.07C2882.93 1216.47 2901.6 1201.4 2908.27 1193.27C2912.93 1187.53 2914 1185.27 2914 1180.87V1175.4L2908.13 1179.93C2904.93 1182.33 2894.8 1190.47 2885.73 1197.8C2867.33 1212.87 2842.27 1230.33 2832 1235.13C2824.67 1238.6 2816.67 1239.4 2816.67 1236.6C2816.67 1233.93 2823.73 1227.8 2840.67 1215.53C2886.93 1182.2 2928.27 1143.27 2958 1105C2973.87 1084.6 2982.13 1076.73 2993.07 1071.67C3002.13 1067.4 3016.4 1065 3022.67 1066.6C3024.93 1067.13 3028.67 1069.8 3031.07 1072.47ZM3069.6 1203.27C3081.87 1212.2 3082.27 1232.2 3071.07 1267.67C3068.93 1274.6 3065.6 1282.87 3063.87 1285.93C3062.13 1289 3060.67 1292.73 3060.67 1294.2C3060.67 1295.67 3059.6 1297.93 3058.13 1299.27C3056.8 1300.6 3055.07 1303.8 3054.13 1306.33C3053.33 1308.87 3050.93 1312.2 3048.8 1313.53C3046.67 1315 3040.53 1321.13 3035.2 1327.27C3028.93 1334.33 3022.67 1339.93 3018 1342.6C3014 1344.87 3003.87 1351.27 2995.33 1357C2965.33 1377 2944.4 1386.33 2914.67 1393C2904.4 1395.27 2891.2 1398.33 2885.47 1399.8C2871.33 1403.4 2862.27 1403.53 2859.87 1400.33C2858.8 1399 2858 1396.07 2858 1394.07C2858 1389.27 2860.93 1387.53 2886 1376.87C2921.47 1361.8 2935.6 1353.4 2940.13 1344.87C2944.4 1336.6 2939.6 1337.8 2896.67 1356.07C2871.87 1366.6 2860 1370.2 2857.87 1368.07C2855.6 1365.8 2866 1358.2 2885.6 1347.53C2907.47 1335.8 2922.27 1326.07 2933.47 1316.2C2954.13 1298.07 2948.13 1295.93 2921.2 1311.8C2890.67 1329.67 2846.93 1350.47 2844.67 1348.2C2841.87 1345.4 2848.4 1340.87 2877.87 1324.47C2938.8 1290.6 2987.87 1252.2 3014.27 1217.67C3025.33 1203.13 3033.47 1199.53 3053.6 1200.07C3063.6 1200.33 3066.67 1201 3069.6 1203.27ZM3254.53 1305.8C3255.73 1317.67 3254.53 1327.8 3249.73 1347.67C3242.8 1376.2 3236 1392.47 3225.2 1405.93C3221.73 1410.2 3211.33 1421.4 3202.13 1430.73L3185.33 1447.93L3188.4 1450.33C3192 1453.27 3192.8 1453.13 3205.6 1446.6C3210.8 1443.93 3215.6 1442.07 3216 1442.6C3218 1444.6 3215.07 1450.07 3206.4 1461C3194.8 1475.53 3176.53 1493.93 3168 1499.67C3155.73 1508.07 3148.27 1510.2 3132.93 1510.33C3118.67 1510.33 3114 1511.53 3114 1515.27C3114 1518.2 3119.2 1523.67 3122.13 1523.67C3130.67 1523.67 3130.67 1528.33 3122.13 1535.93C3113.73 1543.53 3100.13 1550.73 3083.6 1556.33C3076.53 1558.73 3064.13 1563.53 3056 1567C3046.93 1571 3038.67 1573.67 3034.27 1574.07C3027.6 1574.6 3027.07 1574.47 3022.67 1569.8C3016.8 1563.53 3015.47 1558.87 3018.8 1556.33C3020.27 1555.27 3027.07 1551.4 3034.13 1547.67C3041.2 1544.07 3047.73 1540.2 3048.53 1539.13C3050.93 1536.33 3049.2 1534.33 3044.53 1534.33C3042.4 1534.33 3040.67 1533.93 3040.67 1533.27C3040.67 1532.73 3047.6 1527.67 3056 1521.8C3064.4 1516.07 3071.33 1510.87 3071.33 1510.2C3071.33 1508.2 3066.93 1508.87 3050.67 1513C3035.33 1517 3027.33 1517.93 3027.33 1515.93C3027.33 1515.4 3032.93 1512.6 3039.73 1509.8C3077.47 1494.07 3129.33 1462.2 3148.13 1442.87C3162.27 1428.47 3176 1410.47 3174.13 1408.6C3172.53 1407 3172.8 1406.87 3154.4 1421.13C3123.6 1445 3079.87 1470.2 3039.2 1487.53C3026.13 1493.13 3022 1494.07 3022 1491.67C3022 1487.27 3039.73 1477 3062 1468.6C3069.47 1465.67 3078.8 1460.73 3084.67 1456.6C3090.13 1452.73 3103.2 1444.07 3113.73 1437.27C3164.13 1404.87 3200.67 1369.4 3235.33 1319C3246.27 1302.87 3251.07 1297 3252.67 1297C3253.2 1297 3254 1301 3254.53 1305.8ZM3025.07 1380.33C3030.13 1381.4 3036.67 1383.67 3039.73 1385.27C3044.53 1387.93 3045.6 1389.4 3047.2 1395C3053.6 1417.8 3047.2 1441 3029.73 1457.8C3009.33 1477.67 2978.93 1492.2 2950.67 1495.53C2944.13 1496.33 2924.4 1497.67 2906.93 1498.47C2878.27 1499.93 2874.27 1499.93 2866.27 1497.93C2861.33 1496.73 2852.27 1495 2846 1494.33C2832.67 1492.6 2825.47 1489.53 2824.93 1485.4C2824.53 1482.87 2825.2 1482.47 2831.6 1481.8C2835.47 1481.4 2850.4 1480.73 2864.67 1480.47C2894.13 1479.67 2900.93 1478.33 2916 1470.87C2927.6 1465 2939.07 1455.8 2934.8 1455.67C2933.33 1455.67 2929.2 1457.13 2925.33 1458.87C2914.67 1464.07 2902.53 1465.53 2874 1465.67C2847.73 1465.67 2842 1464.73 2842 1460.47C2842 1455.13 2854.13 1450.6 2879.33 1446.33C2912.8 1440.87 2944.67 1429.4 2944.67 1422.87C2944.67 1420.33 2944.13 1420.47 2925.47 1425C2894.67 1432.6 2858.93 1435.67 2857.07 1430.73C2855.2 1425.8 2859.87 1424.2 2897.07 1417C2924.53 1411.8 2973.2 1393.93 2995.33 1381C3000.93 1377.8 3011.73 1377.53 3025.07 1380.33ZM2850.4 1514.33C2865.2 1518.47 2882.4 1521.53 2898.67 1523C2916.53 1524.6 2936.8 1527.8 2943.87 1530.33C2969.73 1539.13 2990.27 1556.33 3001.07 1578.33C3008.93 1594.2 3014.53 1615 3013.33 1624.07C3012.4 1631.93 3005.47 1651.13 3002.13 1655.53C2999.33 1659.13 2983.2 1665.13 2979.07 1663.93C2977.47 1663.53 2969.6 1656.87 2961.47 1649.13C2939.47 1627.93 2933.07 1622.73 2927.6 1620.87C2924.93 1619.93 2918.8 1616.87 2914.13 1613.93C2909.33 1611.13 2900.93 1607 2895.47 1604.87C2869.73 1595 2835.87 1575 2824.93 1563.13C2815.47 1552.87 2817.73 1550.6 2832.13 1556.33C2841.87 1560.2 2858.67 1563 2865.33 1561.8C2874.27 1560.07 2870.53 1557 2849.2 1548.2C2834.53 1542.07 2826.8 1537.53 2828 1535.67C2828.4 1535 2830.67 1535.13 2833.07 1535.8C2838.53 1537.4 2875.87 1541 2886.8 1541C2891.47 1541 2895.47 1540.47 2895.87 1539.8C2897.47 1537.27 2892.27 1535.4 2874.27 1531.67C2854.8 1527.8 2848.27 1525.27 2846 1521.13C2845.2 1519.53 2843.73 1518.87 2842.13 1519.27C2839.33 1519.93 2834 1515.53 2834 1512.33C2834 1509.67 2834 1509.67 2850.4 1514.33ZM3030.4 1536.6C3029.47 1536.87 3027.6 1536.87 3026.4 1536.6C3025.07 1536.2 3025.87 1535.93 3028 1535.93C3030.27 1535.93 3031.2 1536.2 3030.4 1536.6ZM3013.33 1539.67C3014.4 1541.4 3010.67 1542.87 3007.87 1541.8C3005.2 1540.73 3006.67 1538.33 3010 1538.33C3011.33 1538.33 3012.93 1539 3013.33 1539.67ZM2815.87 1581.27C2826.67 1587.53 2838.93 1595.93 2851.07 1605.4C2855.6 1609 2862.13 1612.73 2865.6 1613.8C2869.07 1614.87 2877.6 1618.87 2884.67 1622.87C2891.6 1626.73 2900.13 1630.87 2903.47 1632.2C2911.07 1634.87 2924.13 1642.73 2928.8 1647.13C2953.2 1670.33 2960.27 1720.47 2943.07 1746.87C2938.93 1753.13 2936.27 1754.07 2916.67 1757C2903.87 1758.87 2899.6 1759.13 2898.53 1757.93C2897.73 1757 2884.4 1739.53 2869.07 1719C2845.2 1687.13 2838.67 1679.27 2824.93 1666.33C2808.67 1651 2789.73 1630.47 2783.73 1621.67C2780.27 1616.6 2780.13 1611.27 2783.33 1610.6C2784.4 1610.47 2788.53 1613.27 2792.4 1616.87C2806.27 1630.07 2838 1645.67 2838 1639.4C2838 1638.47 2832.53 1632.2 2825.73 1625.4C2818.93 1618.6 2813.87 1612.73 2814.27 1612.33C2814.67 1611.93 2822.53 1615.27 2831.6 1619.8C2848.27 1628.07 2852.67 1629 2852.67 1624.07C2852.53 1620.33 2850.4 1618.33 2831.33 1603.93C2812.53 1589.93 2810 1587.8 2804.8 1582.07C2801.87 1578.6 2801.87 1575.67 2805.07 1575.67C2805.87 1575.67 2810.8 1578.2 2815.87 1581.27ZM2790.67 1654.33C2800 1663.13 2808.13 1670.33 2808.67 1670.33C2809.87 1670.33 2833.87 1699.53 2848.67 1719C2864.93 1740.47 2880.67 1773.4 2880.67 1785.93C2880.67 1792.2 2875.47 1810.47 2871.6 1817.4C2867.33 1825.4 2854.93 1837 2850.8 1837C2846.93 1837 2824.93 1829.53 2822.27 1827.4C2819.33 1824.87 2816.13 1816.87 2804 1781C2787.47 1731.93 2783.07 1722.33 2763.2 1690.87C2748.93 1667.93 2744.67 1660.2 2744.67 1656.47C2744.67 1654.47 2750.27 1659.4 2765.07 1674.47C2777.87 1687.53 2787.6 1696.33 2791.6 1698.33C2803.33 1704.47 2801.6 1698.2 2787.2 1683.13C2776.8 1672.07 2775.2 1667.13 2784.67 1675C2787.87 1677.67 2794.53 1681.93 2799.6 1684.47C2815.87 1692.73 2815.47 1690.33 2796.93 1671.13C2782.13 1655.93 2774.13 1646.6 2771.47 1641.27C2768 1634.6 2774.27 1638.87 2790.67 1654.33ZM2769.87 1661.93C2772.13 1664.6 2773.6 1667.13 2773.33 1667.53C2772.53 1668.33 2766.13 1662.47 2764.53 1659.27C2762.27 1655.13 2765.6 1656.73 2769.87 1661.93ZM2740.4 1685.27C2744.27 1689.53 2764.13 1721.27 2769.33 1731.67C2771.73 1736.47 2774.93 1744.47 2776.4 1749.67C2777.87 1754.73 2782.53 1768.87 2786.8 1781C2793.47 1800.33 2794.4 1804.2 2794.4 1813C2794.27 1830.47 2785.6 1846.73 2774.4 1850.47C2768.4 1852.47 2753.47 1851.13 2749.2 1848.33C2744.13 1845 2742.13 1838.2 2737.33 1807.67C2734.8 1791.93 2732.27 1776.33 2731.47 1773C2729.2 1763 2719.47 1735.93 2713.2 1722.33C2706.67 1707.8 2706.53 1707.67 2709.2 1707.67C2712.27 1707.67 2724.93 1723.93 2734.4 1740.07C2739.2 1748.33 2744.27 1756.47 2745.47 1758.2L2747.87 1761.53L2749.07 1758.6C2752 1752.2 2745.47 1734.73 2731.33 1710.87C2727.6 1704.6 2724.8 1698.73 2725.07 1697.93C2725.73 1695.93 2734.53 1707.27 2748.8 1728.33C2755.2 1737.93 2761.87 1747 2763.47 1748.33L2766.4 1751L2765.33 1747.67C2763.07 1739.93 2754.67 1721 2745.33 1702.33C2735.6 1683 2734.53 1679.13 2740.4 1685.27ZM2685.73 1729.93C2683.6 1731.93 2683.33 1731.93 2682.53 1729.93C2682.13 1728.73 2682.13 1726.6 2682.53 1725.4C2683.33 1723.4 2683.6 1723.4 2685.73 1725.4C2687.73 1727.53 2687.73 1727.8 2685.73 1729.93Z" fill="white"/>
<path id="Vector_25" d="M2976.93 997.267C2975.47 999.667 2972.4 1006.2 2970 1011.67C2962.93 1027.8 2954 1043 2944 1055.4C2938.93 1061.67 2938.27 1065.13 2941.2 1067.53C2942.67 1068.87 2944 1068.73 2946.93 1067.13C2961.6 1059.53 2982 1019.8 2982 998.733C2982 991.933 2980.53 991.533 2976.93 997.267Z" fill="white"/>
<path id="Vector_26" d="M2796.67 1279.67C2794.67 1281.67 2794.13 1283.4 2794.8 1286.07C2797.2 1296.47 2798.27 1299.67 2800.53 1302.6L2803.07 1305.67L2806.53 1302.47C2810.8 1298.47 2812.13 1290.2 2809.73 1283C2808.27 1278.47 2807.33 1277.67 2803.73 1277.27C2800.8 1277 2798.67 1277.67 2796.67 1279.67Z" fill="white"/>
<path id="Vector_27" d="M2814.53 1395C2813.33 1397.93 2815.07 1407.53 2817.73 1413C2820.93 1419.4 2824.53 1419.67 2829.87 1413.67C2836.13 1406.47 2835.2 1401 2826.8 1395.8C2821.6 1392.47 2815.6 1392.2 2814.53 1395Z" fill="white"/>
<path id="Vector_28" d="M2788.27 1513C2783.87 1516.47 2782.8 1520.07 2784.8 1523.93C2786.53 1527.4 2792.67 1534.33 2794 1534.33C2795.47 1534.33 2799.33 1525.27 2800.13 1519.67C2801.6 1510.73 2795.47 1507.4 2788.27 1513Z" fill="white"/>
<path id="Vector_29" d="M2735.07 1604.33C2731.87 1611.27 2740 1620.07 2745.47 1615.53C2748 1613.4 2746.93 1608.2 2743.07 1603.93C2739.33 1600.07 2736.93 1600.2 2735.07 1604.33Z" fill="white"/>
<path id="Vector_30" d="M2674.8 1671.8C2670.67 1676.6 2671.6 1678.73 2677.87 1678.73C2683.2 1678.73 2686.27 1676.07 2685.73 1671.8C2685.07 1666.33 2679.33 1666.33 2674.8 1671.8Z" fill="white"/>
<path id="Vector_31" d="M2690 1826.73C2690 1831.8 2709.2 1851.67 2714 1851.67C2719.6 1851.67 2716.53 1846.6 2704.67 1835.8C2692.53 1825 2690 1823.4 2690 1826.73Z" fill="white"/>
<path id="Vector_32" d="M3120 1213.27C3116.67 1217.13 3110.93 1224.73 3107.2 1230.07C3100.93 1239.4 3099.33 1243.67 3101.87 1243.67C3104 1243.67 3123.2 1222.6 3125.87 1217.13C3131.6 1205.93 3128.4 1203.8 3120 1213.27Z" fill="white"/>
<path id="Vector_33" d="M3010.13 1107.93C3009.33 1110.33 3008 1117.93 3007.2 1125C3004.8 1148.6 2998.67 1163.67 2983.2 1184.87C2974.13 1197.13 2972.4 1201 2975.73 1201C2977.87 1201 2991.47 1191.8 2997.2 1186.47C3007.07 1177.4 3015.6 1158.07 3017.87 1139.67C3020.8 1117 3015.07 1093.8 3010.13 1107.93Z" fill="white"/>
<path id="Vector_34" d="M2994.93 1129.4C2990.67 1132.73 2980.27 1158.47 2982.4 1160.6C2984.13 1162.2 2989.6 1155.67 2994.53 1146.07C3000.8 1133.93 3000.93 1124.73 2994.93 1129.4Z" fill="white"/>
<path id="Vector_35" d="M3053.47 1232.73C3053.07 1233.4 3052.4 1239.93 3051.87 1247.13C3050.27 1272.2 3041.6 1289.13 3017.87 1313.13C3005.2 1325.93 3005.33 1330.33 3018.13 1324.07C3033.2 1316.47 3049.87 1294.87 3057.6 1272.73C3061.73 1261 3063.2 1241 3060.4 1235.67C3058.53 1232.2 3054.8 1230.6 3053.47 1232.73Z" fill="white"/>
<path id="Vector_36" d="M3023.87 1275.67C3015.87 1285.13 3012.67 1290.87 3014.4 1292.6C3016.93 1295.13 3030 1279.93 3033.6 1270.2C3036.13 1263.4 3032.27 1265.67 3023.87 1275.67Z" fill="white"/>
<path id="Vector_37" d="M3030.67 1421.13C3016.8 1438.07 3000.8 1450.87 2981.33 1460.73C2975.47 1463.67 2969.2 1467.27 2967.33 1468.87L2964 1471.53L2971.87 1471.67C2976.13 1471.67 2984.93 1470.47 2991.33 1468.87C3005.73 1465.53 3014 1460.2 3024.93 1447.13C3035.2 1435 3038.27 1428.33 3037.73 1419.8L3037.33 1413L3030.67 1421.13Z" fill="white"/>
<path id="Vector_38" d="M3001.33 1424.2C2992.4 1428.47 2983.33 1435.27 2983.33 1437.67C2983.33 1440.87 2989.07 1442.87 2992.53 1441.13C2994 1440.2 2995.33 1439 2995.33 1438.33C2995.33 1437.67 2999.33 1433.93 3004.13 1430.2C3010.4 1425.13 3012.4 1423 3011.07 1422.2C3008.67 1420.6 3008.93 1420.6 3001.33 1424.2Z" fill="white"/>
<path id="Vector_39" d="M2983.73 1605C2979.33 1607.67 2974 1613.8 2974 1616.33C2974 1617.27 2974.8 1618.73 2975.73 1619.53C2978.8 1622.07 2991.33 1610.73 2991.33 1605.53C2991.33 1602.73 2987.73 1602.47 2983.73 1605Z" fill="white"/>
<path id="Vector_40" d="M2998.8 1614.87C2996.93 1617.4 2990.8 1623.13 2985.33 1627.67C2974.93 1636.2 2973.6 1639 2977.87 1642.87C2980.13 1645 2980.67 1644.87 2986.8 1640.6C2995.6 1634.6 3000.4 1627.27 3001.87 1618.33C3002.53 1614.33 3002.93 1610.87 3002.67 1610.6C3002.53 1610.47 3000.8 1612.33 2998.8 1614.87Z" fill="white"/>
<path id="Vector_41" d="M2939.33 1698.33C2939.33 1714.33 2937.73 1719.93 2931.33 1726.73L2926.27 1732.2L2912.27 1731.93C2903.87 1731.8 2897.87 1732.2 2897.33 1733C2895.07 1736.73 2908 1743.67 2918 1743.93C2923.6 1744.07 2932.93 1736.87 2937.07 1729.13C2944.13 1716.33 2946.27 1694.73 2941.2 1688.07C2939.73 1685.93 2939.47 1687.4 2939.33 1698.33Z" fill="white"/>
<path id="Vector_42" d="M2917.6 1704.6C2916.13 1706.07 2916.53 1716.73 2918.13 1717.8C2921.33 1719.8 2925.33 1712.87 2924.8 1705.93C2924.67 1703.67 2919.47 1702.6 2917.6 1704.6Z" fill="white"/>
<path id="Vector_43" d="M2852.93 1783.53C2844.13 1785 2835.6 1792.47 2838.93 1795.8C2841.33 1798.2 2848.67 1795.13 2855.07 1789.13C2860.4 1784.07 2861.73 1782.2 2859.73 1782.47C2859.07 1782.6 2856.13 1783.13 2852.93 1783.53Z" fill="white"/>
<path id="Vector_44" d="M2860.67 1793.13C2851.87 1800.87 2847.87 1802.6 2836.13 1803.8C2830.4 1804.33 2825.33 1805.27 2824.93 1805.67C2823.2 1807.27 2829.73 1816.33 2834.13 1818.73C2843.2 1823.53 2854.53 1818.6 2861.47 1806.87C2864.8 1801.27 2867.87 1791.27 2867.07 1788.87C2866.8 1788.33 2864 1790.2 2860.67 1793.13Z" fill="white"/>
<path id="Vector_45" d="M2764.4 1802.2C2760.67 1805.53 2760.4 1806.33 2761.87 1808.2C2765.47 1812.47 2776.67 1809.27 2776.67 1803.8C2776.67 1797.53 2770.53 1796.73 2764.4 1802.2Z" fill="white"/>
<path id="Vector_46" d="M2772.67 1822.87C2755.6 1828.87 2753.2 1830.87 2757.87 1835.53C2761.33 1839 2766.27 1839 2773.33 1835.8C2782.67 1831.67 2789.33 1821 2783.33 1820.07C2782.27 1819.93 2777.47 1821.13 2772.67 1822.87Z" fill="white"/>
</g>
</g>
</g>
<defs>
<clipPath id="clip0_5040_4963">
<rect width="884" height="1531" fill="white" transform="translate(440 349)"/>
</clipPath>
<clipPath id="clip1_5040_4963">
<rect width="884" height="1531" fill="white" transform="translate(2445 349)"/>
</clipPath>
</defs>
</svg>
