<svg width="126" height="126" viewBox="0 0 126 126" fill="none" xmlns="http://www.w3.org/2000/svg">
<g id="Frame 265">
<circle id="Ellipse 12" cx="63" cy="63" r="59" fill="#5400D3"/>
<circle id="Ellipse 11" cx="63" cy="63" r="55" fill="#FEFEFE"/>
<path id="Subtract" fill-rule="evenodd" clip-rule="evenodd" d="M63 36C63 50.9117 50.9117 63 36 63C50.9117 63 63 75.0883 63 90C63 75.0883 75.0883 63 90 63C75.0883 63 63 50.9117 63 36Z" fill="#5400D3"/>
<g id="Group">
<path id="O" d="M71.9454 19.5682C71.85 20.2467 71.6451 20.8158 71.3307 21.2756C71.0162 21.7353 70.6265 22.0692 70.1617 22.2772C69.6968 22.4852 69.1901 22.5507 68.6414 22.4736C68.0928 22.3965 67.6237 22.1939 67.2342 21.8658C66.8447 21.5377 66.5621 21.1094 66.3866 20.5808C66.211 20.0521 66.1709 19.4486 66.2663 18.7701C66.3616 18.0916 66.5665 17.5225 66.881 17.0628C67.1955 16.603 67.5851 16.2691 68.05 16.0611C68.5148 15.8531 69.0216 15.7876 69.5702 15.8647C70.1189 15.9418 70.5879 16.1444 70.9775 16.4725C71.367 16.8006 71.6495 17.2289 71.8251 17.7576C72.0006 18.2862 72.0407 18.8897 71.9454 19.5682ZM71.1915 19.4623C71.2698 18.9053 71.2427 18.422 71.1102 18.0126C70.9797 17.6035 70.7703 17.2783 70.4817 17.0371C70.1953 16.7961 69.8573 16.6482 69.4678 16.5935C69.0783 16.5387 68.7116 16.5876 68.3678 16.74C68.026 16.8927 67.735 17.1475 67.4948 17.5046C67.2566 17.8619 67.0984 18.319 67.0201 18.8761C66.9419 19.4331 66.9679 19.9161 67.0984 20.3252C67.2309 20.7347 67.4404 21.0598 67.7268 21.3008C68.0153 21.5421 68.3544 21.6901 68.7439 21.7449C69.1333 21.7996 69.499 21.7506 69.8408 21.5979C70.1846 21.4455 70.4756 21.1906 70.7137 20.8333C70.954 20.4763 71.1132 20.0193 71.1915 19.4623Z" fill="#1B0043"/>
<path id="P" d="M72.3174 22.9957L74.108 16.7512L76.218 17.3562C76.7079 17.4966 77.0829 17.6999 77.3432 17.9659C77.6061 18.2305 77.77 18.5338 77.8347 18.8757C77.8995 19.2176 77.8791 19.5726 77.7736 19.9405C77.6681 20.3084 77.497 20.6212 77.2603 20.8789C77.0256 21.1372 76.7272 21.3112 76.3649 21.4009C76.0031 21.4886 75.5794 21.4628 75.0936 21.3235L73.5812 20.8898L73.7736 20.219L75.2615 20.6457C75.5969 20.7419 75.8829 20.7611 76.1194 20.7036C76.3559 20.646 76.5481 20.5317 76.6961 20.3608C76.8467 20.1884 76.9579 19.9772 77.0296 19.7272C77.1013 19.4771 77.1187 19.2401 77.0817 19.0161C77.0468 18.7927 76.9427 18.5957 76.7694 18.425C76.5968 18.2523 76.3407 18.1173 76.0012 18.02L74.6718 17.6388L73.0736 23.2125L72.3174 22.9957Z" fill="#1B0043"/>
<path id="E" d="M78.0707 24.7869L80.7129 18.8523L84.2945 20.4469L84.0107 21.0844L81.1477 19.8098L80.255 21.815L82.9325 23.0071L82.6486 23.6446L79.9711 22.4525L79.0732 24.4693L81.9825 25.7646L81.6987 26.4021L78.0707 24.7869Z" fill="#1B0043"/>
<path id="N" d="M90.3015 23.9878L86.8591 29.4968L86.2135 29.0934L85.9144 22.8921L85.8606 22.8585L83.1577 27.1839L82.4906 26.7671L85.933 21.258L86.5786 21.6614L86.8818 27.8802L86.9356 27.9139L89.6452 23.5776L90.3015 23.9878Z" fill="#1B0043"/>
<path id="T" d="M96.2062 29.8109L96.7248 29.344L99.9849 32.9647L99.4663 33.4316L98.0994 31.9136L93.7904 35.7934L93.2641 35.2088L97.5731 31.329L96.2062 29.8109Z" fill="#1B0043"/>
<path id="O_2" d="M101.324 40.5104C100.756 40.8935 100.196 41.122 99.6441 41.196C99.092 41.2699 98.5831 41.2038 98.1175 40.9975C97.6519 40.7912 97.2642 40.4584 96.9544 39.9991C96.6446 39.5398 96.4812 39.0557 96.4644 38.5467C96.4476 38.0377 96.5769 37.5411 96.8522 37.0569C97.1276 36.5727 97.5493 36.1391 98.1173 35.7559C98.6853 35.3728 99.2454 35.1443 99.7975 35.0703C100.35 34.9964 100.858 35.0625 101.324 35.2688C101.79 35.4751 102.177 35.8079 102.487 36.2672C102.797 36.7265 102.96 37.2107 102.977 37.7196C102.994 38.2286 102.865 38.7252 102.589 39.2094C102.314 39.6936 101.892 40.1272 101.324 40.5104ZM100.899 39.8793C101.365 39.5647 101.706 39.2212 101.921 38.8488C102.138 38.4781 102.24 38.1049 102.226 37.729C102.213 37.3549 102.097 37.0048 101.877 36.6787C101.657 36.3526 101.376 36.1128 101.032 35.9592C100.69 35.8074 100.306 35.7617 99.8798 35.8221C99.4549 35.8842 99.0093 36.0725 98.543 36.3871C98.0767 36.7016 97.7351 37.0442 97.5184 37.4149C97.3028 37.7873 97.2013 38.1606 97.2139 38.5347C97.2277 38.9106 97.3445 39.2615 97.5644 39.5876C97.7844 39.9137 98.0654 40.1526 98.4076 40.3045C98.751 40.458 99.1351 40.5037 99.56 40.4416C99.986 40.3813 100.432 40.1938 100.899 39.8793Z" fill="#1B0043"/>
<path id="W" d="M101.357 47.9777L106.986 44.2809L107.233 45.0411L102.621 47.9672L102.64 48.0275L108.1 47.7079L108.374 48.5525L103.77 51.5028L103.789 51.5631L109.241 51.2193L109.488 51.9795L102.76 52.2976L102.51 51.5253L106.99 48.5621L106.974 48.5138L101.608 48.7499L101.357 47.9777Z" fill="#1B0043"/>
<path id="O_3" d="M107.18 57.9976C106.505 58.1166 105.9 58.0976 105.366 57.9406C104.832 57.7836 104.394 57.5162 104.052 57.1384C103.711 56.7605 103.492 56.2988 103.396 55.7532C103.299 55.2076 103.347 54.6989 103.539 54.227C103.73 53.7552 104.05 53.3541 104.499 53.0238C104.948 52.6935 105.509 52.4688 106.184 52.3499C106.859 52.2309 107.463 52.2499 107.998 52.4069C108.532 52.5639 108.97 52.8313 109.311 53.2091C109.653 53.587 109.872 54.0487 109.968 54.5943C110.064 55.1399 110.016 55.6486 109.825 56.1205C109.633 56.5923 109.313 56.9934 108.865 57.3237C108.416 57.654 107.854 57.8787 107.18 57.9976ZM107.048 57.2479C107.601 57.1503 108.053 56.9751 108.401 56.7226C108.75 56.4721 108.994 56.1724 109.135 55.8234C109.275 55.4766 109.312 55.1094 109.243 54.7221C109.175 54.3347 109.015 54.0011 108.764 53.7212C108.513 53.4433 108.181 53.2453 107.767 53.1272C107.354 53.0111 106.87 53.0019 106.316 53.0996C105.762 53.1972 105.311 53.3713 104.962 53.6218C104.614 53.8743 104.369 54.174 104.228 54.5209C104.088 54.8699 104.052 55.2381 104.12 55.6254C104.189 56.0128 104.348 56.3454 104.599 56.6232C104.85 56.9032 105.183 57.1012 105.596 57.2172C106.01 57.3354 106.494 57.3456 107.048 57.2479Z" fill="#1B0043"/>
<path id="R" d="M104.035 59.4098L110.527 59.1831L110.604 61.3767C110.621 61.8839 110.549 62.3033 110.387 62.6348C110.228 62.9662 110 63.2154 109.706 63.3823C109.411 63.5491 109.072 63.6392 108.69 63.6526C108.307 63.666 107.966 63.5996 107.664 63.4535C107.363 63.3075 107.122 63.0757 106.942 62.7583C106.763 62.4408 106.666 62.0306 106.648 61.5276L106.586 59.7524L107.296 59.7276L107.357 61.4774C107.369 61.824 107.43 62.1012 107.539 62.309C107.647 62.5189 107.797 62.6682 107.986 62.7568C108.177 62.8474 108.403 62.8882 108.663 62.8791C108.923 62.87 109.148 62.8135 109.339 62.7095C109.53 62.6055 109.675 62.4449 109.773 62.2278C109.874 62.0106 109.918 61.7266 109.905 61.3757L109.857 59.9936L104.062 60.196L104.035 59.4098ZM107.058 62.3639L104.197 64.0634L104.166 63.1504L107.027 61.4763L107.058 62.3639Z" fill="#1B0043"/>
<path id="K" d="M104.14 65.1399L110.6 65.8189L110.518 66.6012L107.313 66.2644L107.305 66.3401L110.205 69.5791L110.098 70.6012L107.468 67.5819L103.637 69.9222L103.737 68.9758L106.976 67.0454L106.152 66.1423L104.058 65.9222L104.14 65.1399Z" fill="#1B0043"/>
<path id="&#226;&#128;&#162;" opacity="0.5" d="M102.318 78.6889C102.414 78.4516 102.559 78.2583 102.754 78.109C102.951 77.9605 103.171 77.867 103.415 77.8286C103.658 77.7921 103.898 77.8218 104.135 77.9176C104.374 78.0143 104.567 78.1597 104.715 78.3538C104.863 78.5506 104.956 78.7704 104.992 79.0132C105.031 79.2568 105.002 79.4973 104.906 79.7345C104.81 79.9737 104.663 80.1666 104.467 80.3132C104.272 80.4625 104.053 80.5554 103.811 80.5918C103.569 80.6311 103.329 80.6024 103.089 80.5057C102.852 80.4099 102.659 80.2635 102.511 80.0666C102.361 79.8718 102.267 79.6525 102.229 79.4089C102.192 79.1681 102.221 78.9281 102.318 78.6889Z" fill="black"/>
<path id="O_4" d="M96.341 92.4088C95.8011 91.987 95.4107 91.5249 95.1698 91.0227C94.9288 90.5205 94.8345 90.0161 94.8868 89.5095C94.9391 89.003 95.1358 88.5314 95.4769 88.0948C95.818 87.6582 96.228 87.3533 96.7069 87.18C97.1857 87.0067 97.698 86.9762 98.2436 87.0885C98.7891 87.2008 99.3319 87.4678 99.8718 87.8896C100.412 88.3114 100.802 88.7735 101.043 89.2757C101.284 89.7779 101.378 90.2823 101.326 90.7889C101.274 91.2954 101.077 91.767 100.736 92.2036C100.395 92.6402 99.9848 92.9451 99.5059 93.1184C99.027 93.2917 98.5148 93.3222 97.9692 93.2099C97.4237 93.0976 96.8809 92.8306 96.341 92.4088ZM96.8097 91.8089C97.2529 92.1552 97.685 92.3733 98.1058 92.4633C98.5253 92.5549 98.9117 92.5361 99.2649 92.4068C99.6168 92.2792 99.9139 92.0605 100.156 91.7505C100.398 91.4406 100.539 91.0986 100.579 90.7246C100.618 90.3523 100.543 89.9729 100.354 89.5863C100.163 89.2014 99.8463 88.8358 99.4031 88.4895C98.9598 88.1432 98.5285 87.9243 98.1089 87.8326C97.6881 87.7427 97.3018 87.7615 96.9498 87.8891C96.5966 88.0183 96.2989 88.2379 96.0568 88.5479C95.8146 88.8578 95.6742 89.1989 95.6356 89.5713C95.5956 89.9453 95.6708 90.3247 95.8612 90.7096C96.0503 91.0962 96.3665 91.4626 96.8097 91.8089Z" fill="#1B0043"/>
<path id="P_2" d="M93.1871 91.0166L97.6997 95.6896L96.1208 97.2143C95.7542 97.5683 95.3906 97.7916 95.0301 97.884C94.6695 97.9794 94.3249 97.9696 93.9964 97.8547C93.6679 97.7398 93.3708 97.5447 93.1049 97.2694C92.839 96.994 92.6536 96.6895 92.5488 96.3556C92.4424 96.0233 92.441 95.6778 92.5444 95.3192C92.6494 94.9621 92.8836 94.608 93.2472 94.2569L94.3789 93.164L94.8637 93.666L93.7502 94.7413C93.4992 94.9836 93.3395 95.2216 93.2711 95.4552C93.2027 95.6888 93.2056 95.9125 93.2796 96.1261C93.3536 96.3428 93.4809 96.5446 93.6616 96.7317C93.8423 96.9188 94.0389 97.0524 94.2513 97.1323C94.4623 97.2138 94.6849 97.2222 94.9194 97.1575C95.1553 97.0943 95.4002 96.94 95.6543 96.6947L96.6491 95.734L92.6212 91.5631L93.1871 91.0166Z" fill="#1B0043"/>
<path id="E_2" d="M88.7591 95.1043L92.5774 100.36L89.4056 102.664L88.9955 102.1L91.5308 100.258L90.2406 98.4818L87.8695 100.205L87.4593 99.64L89.8305 97.9173L88.5328 96.1312L85.9564 98.0031L85.5462 97.4386L88.7591 95.1043Z" fill="#1B0043"/>
<path id="N_2" d="M83.3356 106.096L80.2858 100.36L80.958 100.003L86.4781 102.844L86.5341 102.814L84.1396 98.3109L84.8341 97.9416L87.8839 103.677L87.2117 104.035L81.6745 101.188L81.6185 101.218L84.0189 105.732L83.3356 106.096Z" fill="#1B0043"/>
<path id="T_2" d="M75.342 108.297L75.4871 108.98L70.7215 109.993L70.5764 109.31L72.5745 108.885L71.3689 103.214L72.1384 103.05L73.344 108.722L75.342 108.297Z" fill="#1B0043"/>
<path id="O_5" d="M63.5172 107.379C63.4694 106.696 63.5515 106.097 63.7635 105.582C63.9755 105.067 64.2872 104.659 64.6987 104.359C65.1101 104.059 65.5922 103.889 66.1449 103.851C66.6976 103.812 67.1985 103.913 67.6477 104.153C68.0969 104.393 68.4624 104.753 68.744 105.233C69.0256 105.714 69.1903 106.296 69.2381 106.979C69.2859 107.663 69.2038 108.262 68.9918 108.777C68.7798 109.292 68.4681 109.7 68.0566 110C67.6451 110.3 67.1631 110.47 66.6104 110.508C66.0577 110.547 65.5568 110.446 65.1075 110.206C64.6583 109.966 64.2929 109.606 64.0113 109.126C63.7297 108.645 63.565 108.063 63.5172 107.379ZM64.2766 107.326C64.3158 107.887 64.4428 108.354 64.6576 108.727C64.8702 109.1 65.1427 109.375 65.4751 109.551C65.8054 109.727 66.1667 109.802 66.5591 109.774C66.9514 109.747 67.2999 109.623 67.6046 109.402C67.9072 109.182 68.1388 108.872 68.2996 108.473C68.4582 108.074 68.5179 107.594 68.4787 107.033C68.4394 106.471 68.3135 106.004 68.1009 105.631C67.8862 105.258 67.6136 104.984 67.2834 104.808C66.951 104.632 66.5886 104.557 66.1962 104.585C65.8038 104.612 65.4564 104.736 65.1538 104.957C64.8492 105.177 64.6175 105.487 64.4589 105.886C64.2981 106.285 64.2374 106.765 64.2766 107.326Z" fill="#1B0043"/>
<path id="W_2" d="M57.0326 103.675L57.4194 110.398L56.6375 110.232L56.4097 104.774L56.3476 104.761L53.8948 109.649L53.0261 109.464L52.7734 104.001L52.7113 103.988L50.2833 108.881L49.5015 108.715L52.5896 102.73L53.3839 102.899L53.71 108.261L53.7596 108.271L56.2383 103.506L57.0326 103.675Z" fill="#1B0043"/>
<path id="O_6" d="M45.4437 103.708C45.678 103.064 45.9968 102.55 46.4 102.166C46.8031 101.781 47.2537 101.536 47.7516 101.429C48.2496 101.322 48.7589 101.363 49.2795 101.553C49.8001 101.742 50.2168 102.038 50.5296 102.44C50.8424 102.842 51.0297 103.32 51.0915 103.873C51.1533 104.427 51.0671 105.025 50.8327 105.669C50.5984 106.313 50.2796 106.827 49.8765 107.212C49.4733 107.596 49.0227 107.841 48.5248 107.948C48.0268 108.055 47.5175 108.014 46.9969 107.824C46.4763 107.635 46.0596 107.339 45.7468 106.937C45.434 106.535 45.2467 106.058 45.1849 105.504C45.1231 104.95 45.2094 104.352 45.4437 103.708ZM46.159 103.968C45.9667 104.497 45.8927 104.975 45.9372 105.403C45.9797 105.83 46.117 106.192 46.3491 106.488C46.5792 106.783 46.879 106.998 47.2486 107.133C47.6182 107.267 47.987 107.296 48.3551 107.218C48.7211 107.14 49.0588 106.951 49.368 106.652C49.6752 106.352 49.925 105.937 50.1174 105.409C50.3097 104.88 50.3847 104.402 50.3422 103.975C50.2977 103.547 50.1604 103.185 49.9303 102.89C49.6982 102.594 49.3974 102.379 49.0278 102.244C48.6582 102.11 48.2904 102.082 47.9243 102.16C47.5563 102.238 47.2187 102.426 46.9114 102.726C46.6022 103.026 46.3514 103.44 46.159 103.968Z" fill="#1B0043"/>
<path id="R_2" d="M45.7924 100.278L42.7426 106.014L40.8046 104.983C40.3565 104.745 40.0293 104.473 39.8232 104.167C39.6161 103.863 39.5139 103.542 39.5167 103.203C39.5195 102.864 39.6108 102.526 39.7905 102.188C39.9702 101.85 40.1986 101.587 40.4757 101.399C40.7529 101.211 41.074 101.119 41.4391 101.121C41.8032 101.126 42.2074 101.246 42.6518 101.482L44.2202 102.316L43.8866 102.944L42.3406 102.122C42.0344 101.959 41.7641 101.872 41.5298 101.863C41.2935 101.852 41.0897 101.907 40.9184 102.026C40.7441 102.147 40.5959 102.322 40.4738 102.552C40.3517 102.781 40.2879 103.005 40.2825 103.222C40.277 103.44 40.3438 103.645 40.4827 103.839C40.6207 104.034 40.8446 104.214 41.1546 104.379L42.3757 105.028L45.0978 99.9088L45.7924 100.278ZM41.7225 101.419L41.681 98.0921L42.4876 98.521L42.5067 101.836L41.7225 101.419Z" fill="#1B0043"/>
<path id="K_2" d="M40.7767 97.5047L36.9584 102.76L36.322 102.298L38.2162 99.6906L38.1546 99.6459L33.8995 100.538L33.0681 99.9338L36.9977 99.166L36.8864 94.6783L37.6563 95.2376L37.7084 99.008L38.9023 98.7463L40.1403 97.0424L40.7767 97.5047Z" fill="#1B0043"/>
<path id="&#226;&#128;&#162;_2" opacity="0.5" d="M29.9552 89.1517C30.1127 89.3533 30.2074 89.5759 30.2393 89.8193C30.2695 90.0641 30.2404 90.3015 30.1519 90.5317C30.062 90.7602 29.9163 90.9532 29.7147 91.1107C29.5114 91.2696 29.2888 91.3643 29.0471 91.3949C28.8023 91.4251 28.5657 91.3953 28.3372 91.3054C28.107 91.2169 27.9132 91.0718 27.7556 90.8702C27.5968 90.6669 27.5029 90.4437 27.474 90.2006C27.4421 89.9572 27.4711 89.7212 27.5609 89.4927C27.6478 89.2638 27.7929 89.07 27.9962 88.9112C28.1978 88.7536 28.421 88.6598 28.6657 88.6296C28.9092 88.5977 29.146 88.626 29.3762 88.7145C29.6034 88.8027 29.7964 88.9484 29.9552 89.1517Z" fill="black"/>
<path id="O_7" d="M21.0613 77.1155C21.6966 76.8588 22.2919 76.7517 22.8473 76.7941C23.4027 76.8366 23.8867 77.0071 24.2992 77.3057C24.7118 77.6043 25.0219 78.0104 25.2294 78.5241C25.4369 79.0378 25.496 79.5453 25.4067 80.0467C25.3173 80.548 25.0876 81.0069 24.7176 81.4233C24.3475 81.8396 23.8449 82.1761 23.2096 82.4328C22.5744 82.6894 21.9791 82.7965 21.4237 82.7541C20.8683 82.7116 20.3843 82.5411 19.9717 82.2425C19.5592 81.944 19.2491 81.5378 19.0416 81.0241C18.834 80.5104 18.7749 80.0029 18.8643 79.5015C18.9537 79.0002 19.1834 78.5413 19.5534 78.125C19.9234 77.7086 20.4261 77.3721 21.0613 77.1155ZM21.3465 77.8213C20.825 78.032 20.42 78.2971 20.1317 78.6166C19.8427 78.9341 19.6658 79.2781 19.6011 79.6486C19.5356 80.0172 19.5765 80.3838 19.7239 80.7485C19.8712 81.1131 20.0968 81.4063 20.4008 81.6279C20.7039 81.8475 21.0701 81.9721 21.4994 82.0016C21.9279 82.0292 22.4029 81.9376 22.9245 81.7269C23.446 81.5162 23.8513 81.2521 24.1404 80.9346C24.4287 80.6151 24.6056 80.2711 24.6711 79.9026C24.7358 79.532 24.6944 79.1644 24.5471 78.7998C24.3997 78.4351 24.1745 78.1429 23.8714 77.9233C23.5675 77.7017 23.2013 77.5771 22.7727 77.5495C22.3434 77.52 21.868 77.6106 21.3465 77.8213Z" fill="#1B0043"/>
<path id="P_3" d="M23.8431 75.0803L17.5399 76.6518L17.0089 74.522C16.8856 74.0276 16.8741 73.6011 16.9744 73.2427C17.072 72.8827 17.2527 72.5892 17.5165 72.3621C17.7803 72.1351 18.0978 71.9753 18.4692 71.8827C18.8406 71.7901 19.197 71.7819 19.5386 71.858C19.8796 71.9321 20.1795 72.1035 20.4383 72.3725C20.6951 72.6419 20.8846 73.0218 21.0069 73.5122L21.3875 75.0387L20.7104 75.2075L20.3359 73.7056C20.2515 73.3671 20.1253 73.1098 19.9572 72.9337C19.7891 72.7577 19.594 72.6484 19.3719 72.6056C19.1473 72.5614 18.9088 72.5707 18.6565 72.6337C18.4041 72.6966 18.1901 72.8 18.0147 72.9441C17.8386 73.086 17.7201 73.2747 17.6589 73.51C17.5956 73.7459 17.6067 74.0352 17.6922 74.3778L18.0267 75.7197L23.6528 74.317L23.8431 75.0803Z" fill="#1B0043"/>
<path id="E_3" d="M22.5169 69.2013L16.0563 69.8803L15.6465 65.9813L16.3405 65.9083L16.6681 69.025L18.8511 68.7956L18.5447 65.8808L19.2387 65.8078L19.5451 68.7227L21.7407 68.4919L21.4078 65.3247L22.1018 65.2518L22.5169 69.2013Z" fill="#1B0043"/>
<path id="N_3" d="M15.7096 59.0089L22.2017 59.2357L22.1752 59.9965L16.9542 63.3562L16.952 63.4196L22.0494 63.5976L22.022 64.3838L15.5298 64.1571L15.5563 63.3963L20.7904 60.0243L20.7926 59.9609L15.6825 59.7824L15.7096 59.0089Z" fill="#1B0043"/>
<path id="T_3" d="M17.8003 50.9844L17.1367 50.7688L18.6422 46.1351L19.3059 46.3508L18.6747 48.2935L24.1892 50.0853L23.9461 50.8335L18.4316 49.0417L17.8003 50.9844Z" fill="#1B0043"/>
<path id="O_8" d="M24.5073 41.2027C25.1231 41.503 25.601 41.8738 25.9411 42.3149C26.2812 42.756 26.4783 43.2298 26.5325 43.7362C26.5866 44.2426 26.4923 44.7447 26.2494 45.2427C26.0065 45.7407 25.6689 46.1242 25.2365 46.3932C24.8041 46.6623 24.3094 46.7987 23.7524 46.8023C23.1954 46.8059 22.609 46.6575 21.9932 46.3571C21.3774 46.0568 20.8995 45.686 20.5594 45.2449C20.2193 44.8038 20.0222 44.33 19.968 43.8236C19.9138 43.3172 20.0082 42.8151 20.2511 42.3171C20.4939 41.8191 20.8316 41.4356 21.264 41.1665C21.6963 40.8975 22.191 40.7611 22.748 40.7575C23.3051 40.7539 23.8915 40.9023 24.5073 41.2027ZM24.1735 41.8869C23.668 41.6403 23.2 41.5168 22.7697 41.5163C22.3403 41.5139 21.9663 41.6126 21.6477 41.8125C21.33 42.0104 21.0849 42.2862 20.9125 42.6397C20.7401 42.9932 20.6732 43.357 20.7119 43.7312C20.7515 44.1034 20.9039 44.4589 21.1693 44.7977C21.4355 45.1346 21.8214 45.4263 22.327 45.6729C22.8325 45.9195 23.3 46.044 23.7294 46.0464C24.1597 46.0469 24.5337 45.9481 24.8514 45.7502C25.1701 45.5503 25.4156 45.2736 25.588 44.9201C25.7604 44.5666 25.8268 44.2037 25.7872 43.8315C25.7485 43.4574 25.5961 43.1018 25.3298 42.7649C25.0645 42.4262 24.6791 42.1335 24.1735 41.8869Z" fill="#1B0043"/>
<path id="W_3" d="M30.9574 37.4403L24.9412 34.4136L25.4761 33.8195L30.3163 36.3509L30.3588 36.3037L27.3523 31.7358L27.9466 31.0757L32.8038 33.5882L32.8463 33.5411L29.8228 28.9919L30.3577 28.3979L33.9967 34.0647L33.4534 34.6682L28.647 32.2698L28.6131 32.3075L31.5007 36.8368L30.9574 37.4403Z" fill="#1B0043"/>
<path id="O_9" d="M36.7233 27.387C37.1637 27.9118 37.4495 28.4449 37.5808 28.9863C37.712 29.5276 37.6994 30.0406 37.5429 30.5252C37.3864 31.0099 37.096 31.4302 36.6716 31.7864C36.2472 32.1425 35.7827 32.3555 35.2783 32.4255C34.7739 32.4954 34.2665 32.4187 33.7562 32.1955C33.2458 31.9722 32.7705 31.5982 32.3301 31.0733C31.8897 30.5485 31.6039 30.0154 31.4726 29.474C31.3413 28.9327 31.354 28.4197 31.5104 27.9351C31.6669 27.4505 31.9574 27.0301 32.3818 26.6739C32.8062 26.3178 33.2706 26.1048 33.7751 26.0348C34.2795 25.9649 34.7869 26.0416 35.2972 26.2648C35.8075 26.4881 36.2829 26.8622 36.7233 27.387ZM36.1401 27.8763C35.7785 27.4454 35.4013 27.1423 35.0084 26.9668C34.6171 26.79 34.2353 26.728 33.8629 26.781C33.4921 26.8326 33.1561 26.9849 32.8548 27.2377C32.5535 27.4905 32.3444 27.7957 32.2276 28.1532C32.1124 28.5093 32.107 28.8961 32.2116 29.3135C32.3178 29.7296 32.5517 30.1531 32.9133 30.584C33.2748 31.0149 33.6512 31.3187 34.0425 31.4956C34.4355 31.671 34.8173 31.733 35.188 31.6813C35.5604 31.6284 35.8973 31.4755 36.1986 31.2226C36.4999 30.9698 36.7081 30.6653 36.8233 30.3092C36.9402 29.9516 36.9455 29.5649 36.8393 29.1488C36.7347 28.7314 36.5017 28.3072 36.1401 27.8763Z" fill="#1B0043"/>
<path id="R_3" d="M39.5184 29.4044L36.076 23.8954L37.9374 22.7322C38.3678 22.4633 38.7671 22.316 39.1351 22.2905C39.5021 22.2632 39.8314 22.3354 40.1233 22.5072C40.4151 22.6789 40.6624 22.927 40.8652 23.2516C41.0681 23.5762 41.1816 23.9055 41.2058 24.2395C41.2299 24.5735 41.1497 24.8979 40.9649 25.2128C40.7791 25.526 40.4727 25.8159 40.0459 26.0826L38.5396 27.0239L38.163 26.4213L39.6479 25.4935C39.942 25.3097 40.1518 25.1187 40.2774 24.9206C40.4047 24.7213 40.4594 24.5176 40.4415 24.3094C40.4243 24.0982 40.3467 23.8823 40.2089 23.6618C40.0711 23.4412 39.9094 23.2742 39.7238 23.1607C39.5382 23.0473 39.3268 23.0023 39.0897 23.0259C38.8514 23.0476 38.5834 23.1514 38.2857 23.3375L37.1129 24.0703L40.1855 28.9876L39.5184 29.4044ZM40.5651 25.3093L43.4673 26.9369L42.6926 27.421L39.812 25.7799L40.5651 25.3093Z" fill="#1B0043"/>
<path id="K_3" d="M44.4281 26.4479L41.7859 20.5133L42.5045 20.1934L43.8153 23.1375L43.8848 23.1065L45.2399 18.9755L46.1788 18.5575L44.8789 22.3445L48.821 24.492L47.9517 24.8791L44.6603 23.039L44.29 24.2038L45.1467 26.1279L44.4281 26.4479Z" fill="#1B0043"/>
<path id="&#226;&#128;&#162;_3" opacity="0.5" d="M57.0743 21.2519C56.8209 21.2875 56.5808 21.2583 56.354 21.1641C56.127 21.0679 55.9359 20.9239 55.7808 20.7322C55.6279 20.5402 55.5336 20.3174 55.498 20.0641C55.4621 19.8086 55.4913 19.5685 55.5857 19.3438C55.6819 19.1168 55.8261 18.9268 56.0181 18.7738C56.2099 18.6187 56.4324 18.5234 56.6858 18.4878C56.9413 18.4519 57.1815 18.4822 57.4065 18.5787C57.6332 18.6728 57.8231 18.8159 57.9761 19.0079C58.1309 19.1976 58.2262 19.4201 58.2621 19.6756C58.2977 19.929 58.2674 20.1692 58.1712 20.3963C58.0771 20.623 57.9341 20.814 57.7424 20.969C57.5524 21.1217 57.3297 21.216 57.0743 21.2519Z" fill="black"/>
</g>
</g>
</svg>
